<?xml version="1.0" encoding="UTF-8" standalone="no"?>
<svg
   xmlns:dc="http://purl.org/dc/elements/1.1/"
   xmlns:cc="http://creativecommons.org/ns#"
   xmlns:rdf="http://www.w3.org/1999/02/22-rdf-syntax-ns#"
   xmlns:svg="http://www.w3.org/2000/svg"
   xmlns="http://www.w3.org/2000/svg"
   xmlns:sodipodi="http://sodipodi.sourceforge.net/DTD/sodipodi-0.dtd"
   xmlns:inkscape="http://www.inkscape.org/namespaces/inkscape"
   id="SkVSq-r1fX"
   version="1.1"
   width="800px"
   height="600"
   viewBox="-60.819 167.222 835.744 484.692"
   preserveAspectRatio="xMidYMid slice"
   sodipodi:docname="race03a.svg"
   inkscape:version="0.92.3 (2405546, 2018-03-11)">
  <metadata
     id="metadata124">
    <rdf:RDF>
      <cc:Work
         rdf:about="">
        <dc:format>image/svg+xml</dc:format>
        <dc:type
           rdf:resource="http://purl.org/dc/dcmitype/StillImage" />
      </cc:Work>
    </rdf:RDF>
  </metadata>
  <defs
     id="defs122" />
  <sodipodi:namedview
     pagecolor="#ffffff"
     bordercolor="#666666"
     borderopacity="1"
     objecttolerance="10"
     gridtolerance="10"
     guidetolerance="10"
     inkscape:pageopacity="0"
     inkscape:pageshadow="2"
     inkscape:window-width="1600"
     inkscape:window-height="877"
     id="namedview120"
     showgrid="false"
     inkscape:zoom="1.0385714"
     inkscape:cx="257.71737"
     inkscape:cy="285.87924"
     inkscape:window-x="-8"
     inkscape:window-y="-8"
     inkscape:window-maximized="1"
     inkscape:current-layer="SkVSq-r1fX" />
  <style
     id="style2">@-webkit-keyframes rkxUHcWrkMX_BycA-rJG7_Animation{0.22%{-webkit-transform:  translate(0px, 0px);transform:  translate(0px, 0px);}10%{-webkit-transform:  translate(225px, -10px);transform:  translate(225px, -10px);}19.78%{-webkit-transform:  translate(285px, 135px);transform:  translate(285px, 135px);}23.11%{-webkit-transform:  translate(310px, 135px);transform:  translate(310px, 135px);}37.11%{-webkit-transform:  translate(285px, 30px);transform:  translate(285px, 30px);}47.33%{-webkit-transform:  translate(285px, 30px);transform:  translate(285px, 30px);}56.67%{-webkit-transform:  translate(230px, -35px);transform:  translate(230px, -35px);}61.33%{-webkit-transform:  translate(210px, -25px);transform:  translate(210px, -25px);}65.11%{-webkit-transform:  translate(195px, -45px);transform:  translate(195px, -45px);}68.44%{-webkit-transform:  translate(185px, -25px);transform:  translate(185px, -25px);}71.33%{-webkit-transform:  translate(175px, -50px);transform:  translate(175px, -50px);}74.89%{-webkit-transform:  translate(158px, -25px);transform:  translate(158px, -25px);}78.44%{-webkit-transform:  translate(142px, -50px);transform:  translate(142px, -50px);}81.78%{-webkit-transform:  translate(135px, -25px);transform:  translate(135px, -25px);}83.78%{-webkit-transform:  translate(135px, -25px);transform:  translate(135px, -25px);}86%{-webkit-transform:  translate(130px, -35px);transform:  translate(130px, -35px);}87.78%{-webkit-transform:  translate(125px, -15px);transform:  translate(125px, -15px);}89.33%{-webkit-transform:  translate(115px, -30px);transform:  translate(115px, -30px);}91.11%{-webkit-transform:  translate(110px, -15px);transform:  translate(110px, -15px);}92.67%{-webkit-transform:  translate(100px, -25px);transform:  translate(100px, -25px);}94.22%{-webkit-transform:  translate(90px, -5px);transform:  translate(90px, -5px);}96%{-webkit-transform:  translate(60px, -15px);transform:  translate(60px, -15px);}99.78%{-webkit-transform:  translate(0px, 5px);transform:  translate(0px, 5px);}0%{-webkit-transform:  translate(0px, 0px);transform:  translate(0px, 0px);}100%{-webkit-transform:  translate(0px, 5px);transform:  translate(0px, 5px);}}@keyframes rkxUHcWrkMX_BycA-rJG7_Animation{0.22%{-webkit-transform:  translate(0px, 0px);transform:  translate(0px, 0px);}10%{-webkit-transform:  translate(225px, -10px);transform:  translate(225px, -10px);}19.78%{-webkit-transform:  translate(285px, 135px);transform:  translate(285px, 135px);}23.11%{-webkit-transform:  translate(310px, 135px);transform:  translate(310px, 135px);}37.11%{-webkit-transform:  translate(285px, 30px);transform:  translate(285px, 30px);}47.33%{-webkit-transform:  translate(285px, 30px);transform:  translate(285px, 30px);}56.67%{-webkit-transform:  translate(230px, -35px);transform:  translate(230px, -35px);}61.33%{-webkit-transform:  translate(210px, -25px);transform:  translate(210px, -25px);}65.11%{-webkit-transform:  translate(195px, -45px);transform:  translate(195px, -45px);}68.44%{-webkit-transform:  translate(185px, -25px);transform:  translate(185px, -25px);}71.33%{-webkit-transform:  translate(175px, -50px);transform:  translate(175px, -50px);}74.89%{-webkit-transform:  translate(158px, -25px);transform:  translate(158px, -25px);}78.44%{-webkit-transform:  translate(142px, -50px);transform:  translate(142px, -50px);}81.78%{-webkit-transform:  translate(135px, -25px);transform:  translate(135px, -25px);}83.78%{-webkit-transform:  translate(135px, -25px);transform:  translate(135px, -25px);}86%{-webkit-transform:  translate(130px, -35px);transform:  translate(130px, -35px);}87.78%{-webkit-transform:  translate(125px, -15px);transform:  translate(125px, -15px);}89.33%{-webkit-transform:  translate(115px, -30px);transform:  translate(115px, -30px);}91.11%{-webkit-transform:  translate(110px, -15px);transform:  translate(110px, -15px);}92.67%{-webkit-transform:  translate(100px, -25px);transform:  translate(100px, -25px);}94.22%{-webkit-transform:  translate(90px, -5px);transform:  translate(90px, -5px);}96%{-webkit-transform:  translate(60px, -15px);transform:  translate(60px, -15px);}99.78%{-webkit-transform:  translate(0px, 5px);transform:  translate(0px, 5px);}0%{-webkit-transform:  translate(0px, 0px);transform:  translate(0px, 0px);}100%{-webkit-transform:  translate(0px, 5px);transform:  translate(0px, 5px);}}#SkVSq-r1fX *{-webkit-animation-duration:  15s;animation-duration:  15s;-webkit-animation-iteration-count:  infinite;animation-iteration-count:  infinite;-webkit-animation-timing-function:  cubic-bezier(0, 0, 1, 1);animation-timing-function:  cubic-bezier(0, 0, 1, 1);}#S1IrcWSkzm{-webkit-transform:  matrix(1.25, 0, 0, -1.25, 0, 744.095);transform:  matrix(1.25, 0, 0, -1.25, 0, 744.095);}#HywH5WBJGQ{fill: none;stroke: #fbcbbb;stroke-width: 0.21541473;stroke-linecap: butt;stroke-linejoin: miter;stroke-miterlimit: 22.9260006;stroke-opacity: 1;stroke-dasharray: none;}#Hk_H5ZSyM7{-webkit-transform:  translate(-231.9324px, -42.654838px);transform:  translate(-231.9324px, -42.654838px);}#SJtHq-H1GQ{fill: #64c9eb;fill-opacity: 1;fill-rule: nonzero;stroke: none;}#HJ5r5-H1zX{fill: #66a1ab;fill-opacity: 1;fill-rule: evenodd;stroke: none;}#HyjHq-SyGQ{fill: #66a1ab;fill-opacity: 1;fill-rule: evenodd;stroke: none;}#HJ2BqWS1zQ{fill: #9cce28;fill-opacity: 1;fill-rule: evenodd;stroke: none;}#rJpS5bryM7{fill: none;stroke: #231f20;stroke-width: 1.99458075;stroke-linecap: butt;stroke-linejoin: miter;stroke-miterlimit: 22.9260006;stroke-opacity: 1;stroke-dasharray: none;}#Sk0S5ZSkMm{fill: #649fa7;fill-opacity: 1;fill-rule: evenodd;stroke: none;}#SJJxHqbB1z7{fill: #66a1ab;fill-opacity: 1;fill-rule: evenodd;stroke: none;}#ryxgS9-Syfm{fill: #66a5b3;fill-opacity: 1;fill-rule: evenodd;stroke: none;}#HyZer9ZSyGQ{fill: #66a5b3;fill-opacity: 1;fill-rule: evenodd;stroke: none;}#S1MlS9WS1Mm{fill: #64c9eb;fill-opacity: 1;fill-rule: evenodd;stroke: none;}#SJmgHcbBJf7{fill: #64c9eb;fill-opacity: 1;fill-rule: evenodd;stroke: none;}#HkNxr9brkMX{fill: #66a1ab;fill-opacity: 1;fill-rule: evenodd;stroke: none;}#S1rgS5bSJMQ{fill: #66a5b3;fill-opacity: 1;fill-rule: evenodd;stroke: none;}#rkIlrcWB1zX{fill: #5e948c;fill-opacity: 1;fill-rule: evenodd;stroke: none;}#SkvlBcbryf7{fill: #64c9eb;fill-opacity: 1;fill-rule: evenodd;stroke: none;}#rJulHq-ryzm{fill: #64c9eb;fill-opacity: 1;fill-rule: evenodd;stroke: none;}#Bytgr5WBkzX{fill: #64c9eb;fill-opacity: 1;fill-rule: evenodd;stroke: none;}#BJ5eS5ZrkGm{fill: #64c9eb;fill-opacity: 1;fill-rule: evenodd;stroke: none;}#HJogHcZrkGQ{fill: #64c9eb;fill-opacity: 1;fill-rule: evenodd;stroke: none;}#SJheH5WrJGQ{fill: #64c9eb;fill-opacity: 1;fill-rule: evenodd;stroke: none;}#HyaxHqWByzm{fill: #50814c;fill-opacity: 1;fill-rule: evenodd;stroke: none;}#BJCeB9-SyGm{fill: #66a1ab;fill-opacity: 1;fill-rule: evenodd;stroke: none;}#BykbBqWByGX{fill: #64c9eb;fill-opacity: 1;fill-rule: evenodd;stroke: none;}#SkeZr5bS1zm{fill: #64c9eb;fill-opacity: 1;fill-rule: evenodd;stroke: none;}#HyZZHqZrJMm{fill: #66a1ad;fill-opacity: 1;fill-rule: evenodd;stroke: none;}#HyMZH9ZSyGm{fill: #649fa7;fill-opacity: 1;fill-rule: evenodd;stroke: none;}#S1XbS5ZryfQ{fill: #649fa7;fill-opacity: 1;fill-rule: evenodd;stroke: none;}#SyNWr9-B1fm{fill: #64c9eb;fill-opacity: 1;fill-rule: evenodd;stroke: none;}#HJH-S9bSJf7{fill: #66caea;fill-opacity: 1;fill-rule: evenodd;stroke: none;}#SJL-S9Wrkfm{fill: #9cce28;fill-opacity: 1;fill-rule: evenodd;stroke: none;}#B1Dbr5brJz7{fill: #9cce28;fill-opacity: 1;fill-rule: evenodd;stroke: none;}#Syubrc-rkG7{fill: #9cce28;fill-opacity: 1;fill-rule: evenodd;stroke: none;}#ByKWS9ZBJfX{fill: none;stroke: #231f20;stroke-width: 1.99458075;stroke-linecap: butt;stroke-linejoin: miter;stroke-miterlimit: 22.9260006;stroke-opacity: 1;stroke-dasharray: none;}#rJcZB9bBkzm{fill: none;stroke: #231f20;stroke-width: 1.99458075;stroke-linecap: butt;stroke-linejoin: miter;stroke-miterlimit: 22.9260006;stroke-opacity: 1;stroke-dasharray: none;}#SyjZBq-Syz7{fill: #659aa0;fill-opacity: 1;fill-rule: evenodd;stroke: none;}#HyhbH5-H1fm{fill: #4c7f3d;fill-opacity: 1;fill-rule: evenodd;stroke: none;}#H1TZrcZH1zm{fill: #4c7f3d;fill-opacity: 1;fill-rule: evenodd;stroke: none;}#ByCWB5WSJzQ{fill: #63989c;fill-opacity: 1;fill-rule: evenodd;stroke: none;}#BkkGH5-HJM7{fill: #99cd29;fill-opacity: 1;fill-rule: evenodd;stroke: none;}#SyeGrc-Skzm{fill: none;stroke: #231f20;stroke-width: 0.99729037;stroke-linecap: butt;stroke-linejoin: miter;stroke-miterlimit: 22.9260006;stroke-opacity: 1;stroke-dasharray: none;}#SJWMrcZBkz7{fill: none;stroke: #231f20;stroke-width: 0.99729037;stroke-linecap: butt;stroke-linejoin: miter;stroke-miterlimit: 22.9260006;stroke-opacity: 1;stroke-dasharray: none;}#BkfMHqWSkGQ{fill: none;stroke: #231f20;stroke-width: 0.99729037;stroke-linecap: butt;stroke-linejoin: miter;stroke-miterlimit: 22.9260006;stroke-opacity: 1;stroke-dasharray: none;}#BJ7MH5WByGX{fill: none;stroke: #231f20;stroke-width: 0.99729037;stroke-linecap: butt;stroke-linejoin: miter;stroke-miterlimit: 22.9260006;stroke-opacity: 1;stroke-dasharray: none;}#HyEGH5ZSyM7{fill: none;stroke: #231f20;stroke-width: 0.99729037;stroke-linecap: butt;stroke-linejoin: miter;stroke-miterlimit: 22.9260006;stroke-opacity: 1;stroke-dasharray: none;}#HkHzHqZBkzQ{fill: none;stroke: #231f20;stroke-width: 0.99729037;stroke-linecap: butt;stroke-linejoin: miter;stroke-miterlimit: 22.9260006;stroke-opacity: 1;stroke-dasharray: none;}#rkIzr5bH1fm{fill: none;stroke: #231f20;stroke-width: 0.99729037;stroke-linecap: butt;stroke-linejoin: miter;stroke-miterlimit: 22.9260006;stroke-opacity: 1;stroke-dasharray: none;}#SywfrcZHJz7{fill: none;stroke: #231f20;stroke-width: 0.99729037;stroke-linecap: butt;stroke-linejoin: miter;stroke-miterlimit: 22.9260006;stroke-opacity: 1;stroke-dasharray: none;}#SkdzH5ZB1Mm{fill: none;stroke: #231f20;stroke-width: 0.99729037;stroke-linecap: butt;stroke-linejoin: miter;stroke-miterlimit: 22.9260006;stroke-opacity: 1;stroke-dasharray: none;}#BJtMS9-Bkzm{fill: none;stroke: #231f20;stroke-width: 0.99729037;stroke-linecap: butt;stroke-linejoin: miter;stroke-miterlimit: 22.9260006;stroke-opacity: 1;stroke-dasharray: none;}#HJcfrqbHkGm{fill: none;stroke: #231f20;stroke-width: 0.99729037;stroke-linecap: butt;stroke-linejoin: miter;stroke-miterlimit: 22.9260006;stroke-opacity: 1;stroke-dasharray: none;}#B1jMrcZryfm{fill: none;stroke: #231f20;stroke-width: 0.99729037;stroke-linecap: butt;stroke-linejoin: miter;stroke-miterlimit: 22.9260006;stroke-opacity: 1;stroke-dasharray: none;}#ByhfS5bSyGX{fill: none;stroke: #231f20;stroke-width: 0.99729037;stroke-linecap: butt;stroke-linejoin: miter;stroke-miterlimit: 22.9260006;stroke-opacity: 1;stroke-dasharray: none;}#BJ6zBqZByf7{fill: none;stroke: #231f20;stroke-width: 0.99729037;stroke-linecap: butt;stroke-linejoin: miter;stroke-miterlimit: 22.9260006;stroke-opacity: 1;stroke-dasharray: none;}#Bk0GSqbS1fX{fill: none;stroke: #231f20;stroke-width: 0.99729037;stroke-linecap: butt;stroke-linejoin: miter;stroke-miterlimit: 22.9260006;stroke-opacity: 1;stroke-dasharray: none;}#ByJQHcWSJfm{fill: none;stroke: #231f20;stroke-width: 0.99729037;stroke-linecap: butt;stroke-linejoin: miter;stroke-miterlimit: 22.9260006;stroke-opacity: 1;stroke-dasharray: none;}#rkgmrqZrJzm{fill: #ffffff;fill-opacity: 1;fill-rule: evenodd;stroke: none;}#HJbQB5bHyz7{fill: none;stroke: #231f20;stroke-width: 0.21541473;stroke-linecap: butt;stroke-linejoin: miter;stroke-miterlimit: 22.9260006;stroke-opacity: 1;stroke-dasharray: none;}#HyfmrcbHJGQ{fill: #ed1c24;fill-opacity: 1;fill-rule: evenodd;stroke: none;}#BJmmr9ZBkGQ{fill: none;stroke: #231f20;stroke-width: 0.21541473;stroke-linecap: butt;stroke-linejoin: miter;stroke-miterlimit: 22.9260006;stroke-opacity: 1;stroke-dasharray: none;}#HJVQrcbB1zm{fill: #ffffff;fill-opacity: 1;fill-rule: evenodd;stroke: none;}#HySXScZSyf7{fill: none;stroke: #231f20;stroke-width: 0.21541473;stroke-linecap: butt;stroke-linejoin: miter;stroke-miterlimit: 22.9260006;stroke-opacity: 1;stroke-dasharray: none;}#B18XH9WryzX{fill: #ed1c24;fill-opacity: 1;fill-rule: evenodd;stroke: none;}#rywmr9brJMm{fill: none;stroke: #231f20;stroke-width: 0.21541473;stroke-linecap: butt;stroke-linejoin: miter;stroke-miterlimit: 22.9260006;stroke-opacity: 1;stroke-dasharray: none;}#Bk_XBcWHJMQ{fill: #fff200;fill-opacity: 1;fill-rule: evenodd;stroke: #231f20;stroke-width: 0.21541473;stroke-linecap: butt;stroke-linejoin: miter;stroke-miterlimit: 22.9260006;stroke-opacity: 1;stroke-dasharray: none;}#H1tQHcZByMQ{fill: none;stroke: #00a650;stroke-width: 1.99458075;stroke-linecap: butt;stroke-linejoin: miter;stroke-miterlimit: 22.9260006;stroke-opacity: 1;stroke-dasharray: none;}#Hk57Hq-HkGX{fill: none;stroke: #00a650;stroke-width: 1.99458075;stroke-linecap: butt;stroke-linejoin: miter;stroke-miterlimit: 22.9260006;stroke-opacity: 1;stroke-dasharray: none;}#HJsXB5ZB1GQ{fill: none;stroke: #231f20;stroke-width: 0.99729037;stroke-linecap: butt;stroke-linejoin: miter;stroke-miterlimit: 22.9260006;stroke-opacity: 1;stroke-dasharray: none;}#B1nXBqbH1fm{fill: #231f20;fill-opacity: 1;fill-rule: evenodd;stroke: #ffffff;stroke-width: 1.99458075;stroke-linecap: butt;stroke-linejoin: miter;stroke-miterlimit: 22.9260006;stroke-opacity: 1;stroke-dasharray: none;}#Hyp7r5-HyzX{fill: none;stroke: #231f20;stroke-width: 0.99729037;stroke-linecap: butt;stroke-linejoin: miter;stroke-miterlimit: 22.9260006;stroke-opacity: 1;stroke-dasharray: none;}#ryRQBcZr1G7{fill: #66a1ab;fill-opacity: 1;fill-rule: evenodd;stroke: none;}#SkkNBcbrkzm{fill: none;stroke: #231f20;stroke-width: 0.99729037;stroke-linecap: butt;stroke-linejoin: miter;stroke-miterlimit: 22.9260006;stroke-opacity: 1;stroke-dasharray: none;}#SklVBq-SyG7{fill: none;stroke: #231f20;stroke-width: 0.99729037;stroke-linecap: butt;stroke-linejoin: miter;stroke-miterlimit: 22.9260006;stroke-opacity: 1;stroke-dasharray: none;}#r1bEH9-SJGm{fill: #99cd29;fill-opacity: 1;fill-rule: evenodd;stroke: none;}#BkG4S5ZHkf7{fill: none;stroke: #231f20;stroke-width: 1.99458075;stroke-linecap: butt;stroke-linejoin: miter;stroke-miterlimit: 22.9260006;stroke-opacity: 1;stroke-dasharray: none;}#r1QNBcZHkfQ{-webkit-transform:  matrix(0.97515, 0, 0, -1, 293.3795, 292.5115);transform:  matrix(0.97515, 0, 0, -1, 293.3795, 292.5115);}#HJ4EH5bHkzQ{font-size: 10px;font-variant: normal;font-weight: normal;font-stretch: condensed;-webkit-writing-mode: lr-tb;-ms-writing-mode: lr-tb;writing-mode: lr-tb;fill: #231f20;fill-opacity: 1;fill-rule: nonzero;stroke: none;font-family: Swis721 Cn BT;-inkscape-font-specification: Swiss721BT-RomanCondensed;}#S1HVHcbSkGm{font-size: 10px;font-variant: normal;font-weight: normal;font-stretch: condensed;-webkit-writing-mode: lr-tb;-ms-writing-mode: lr-tb;writing-mode: lr-tb;fill: #231f20;fill-opacity: 1;fill-rule: nonzero;stroke: none;font-family: Swis721 Cn BT;-inkscape-font-specification: Swiss721BT-RomanCondensed;}#Hy8EScZr1zX{font-size: 10px;font-variant: normal;font-weight: normal;font-stretch: condensed;-webkit-writing-mode: lr-tb;-ms-writing-mode: lr-tb;writing-mode: lr-tb;fill: #231f20;fill-opacity: 1;fill-rule: nonzero;stroke: none;font-family: Swis721 Cn BT;-inkscape-font-specification: Swiss721BT-RomanCondensed;}#HJvNrcZH1Mm{font-size: 10px;font-variant: normal;font-weight: normal;font-stretch: condensed;-webkit-writing-mode: lr-tb;-ms-writing-mode: lr-tb;writing-mode: lr-tb;fill: #231f20;fill-opacity: 1;fill-rule: nonzero;stroke: none;font-family: Swis721 Cn BT;-inkscape-font-specification: Swiss721BT-RomanCondensed;}#HyuNH5bB1zQ{-webkit-transform:  matrix(0.975143, 0, 0, -1, 491.191, 286.519);transform:  matrix(0.975143, 0, 0, -1, 491.191, 286.519);}#HkFEH9ZSkG7{font-size: 10px;font-variant: normal;font-weight: normal;font-stretch: condensed;-webkit-writing-mode: lr-tb;-ms-writing-mode: lr-tb;writing-mode: lr-tb;fill: #231f20;fill-opacity: 1;fill-rule: nonzero;stroke: none;font-family: Swis721 Cn BT;-inkscape-font-specification: Swiss721BT-RomanCondensed;}#ByqNH9WHyfm{-webkit-transform:  matrix(0.97515, 0, 0, -1, 536.7842, 316.4506);transform:  matrix(0.97515, 0, 0, -1, 536.7842, 316.4506);}#ByiNH9ZSyfQ{font-size: 10px;font-variant: normal;font-weight: normal;font-stretch: condensed;-webkit-writing-mode: lr-tb;-ms-writing-mode: lr-tb;writing-mode: lr-tb;fill: #231f20;fill-opacity: 1;fill-rule: nonzero;stroke: none;font-family: Swis721 Cn BT;-inkscape-font-specification: Swiss721BT-RomanCondensed;}#S1h4S5bHkfX{font-size: 10px;font-variant: normal;font-weight: normal;font-stretch: condensed;-webkit-writing-mode: lr-tb;-ms-writing-mode: lr-tb;writing-mode: lr-tb;fill: #231f20;fill-opacity: 1;fill-rule: nonzero;stroke: none;font-family: Swis721 Cn BT;-inkscape-font-specification: Swiss721BT-RomanCondensed;}#HypVS9WSyzQ{font-size: 10px;font-variant: normal;font-weight: normal;font-stretch: condensed;-webkit-writing-mode: lr-tb;-ms-writing-mode: lr-tb;writing-mode: lr-tb;fill: #231f20;fill-opacity: 1;fill-rule: nonzero;stroke: none;font-family: Swis721 Cn BT;-inkscape-font-specification: Swiss721BT-RomanCondensed;}#H10Nr9bBkfm{font-size: 10px;font-variant: normal;font-weight: normal;font-stretch: condensed;-webkit-writing-mode: lr-tb;-ms-writing-mode: lr-tb;writing-mode: lr-tb;fill: #231f20;fill-opacity: 1;fill-rule: nonzero;stroke: none;font-family: Swis721 Cn BT;-inkscape-font-specification: Swiss721BT-RomanCondensed;}#rkJrrq-SJMQ{font-size: 10px;font-variant: normal;font-weight: normal;font-stretch: condensed;-webkit-writing-mode: lr-tb;-ms-writing-mode: lr-tb;writing-mode: lr-tb;fill: #231f20;fill-opacity: 1;fill-rule: nonzero;stroke: none;font-family: Swis721 Cn BT;-inkscape-font-specification: Swiss721BT-RomanCondensed;}#S1xBr9bryzQ{font-size: 10px;font-variant: normal;font-weight: normal;font-stretch: condensed;-webkit-writing-mode: lr-tb;-ms-writing-mode: lr-tb;writing-mode: lr-tb;fill: #231f20;fill-opacity: 1;fill-rule: nonzero;stroke: none;font-family: Swis721 Cn BT;-inkscape-font-specification: Swiss721BT-RomanCondensed;}#SJ-SHcbHkGQ{font-size: 10px;font-variant: normal;font-weight: normal;font-stretch: condensed;-webkit-writing-mode: lr-tb;-ms-writing-mode: lr-tb;writing-mode: lr-tb;fill: #231f20;fill-opacity: 1;fill-rule: nonzero;stroke: none;font-family: Swis721 Cn BT;-inkscape-font-specification: Swiss721BT-RomanCondensed;}#ByzSSqWByz7{-webkit-transform:  matrix(0.975143, 0, 0, -1, 645.073, 378.827);transform:  matrix(0.975143, 0, 0, -1, 645.073, 378.827);}#BymBr9WByzQ{font-size: 10px;font-variant: normal;font-weight: normal;font-stretch: condensed;-webkit-writing-mode: lr-tb;-ms-writing-mode: lr-tb;writing-mode: lr-tb;fill: #231f20;fill-opacity: 1;fill-rule: nonzero;stroke: none;font-family: Swis721 Cn BT;-inkscape-font-specification: Swiss721BT-RomanCondensed;}#HJNHr9br1fQ{-webkit-transform:  matrix(1, 0, 0, -1, 641.451, 338.831);transform:  matrix(1, 0, 0, -1, 641.451, 338.831);}#SySrScZBJGX{font-size: 10px;font-variant: normal;font-weight: normal;font-stretch: condensed;-webkit-writing-mode: lr-tb;-ms-writing-mode: lr-tb;writing-mode: lr-tb;fill: #231f20;fill-opacity: 1;fill-rule: nonzero;stroke: none;font-family: Swis721 Cn BT;-inkscape-font-specification: Swiss721BT-RomanCondensed;}#ByUSH9bBJMX{-webkit-transform:  matrix(1, 0, 0, -1, 568.2797, 274.2781);transform:  matrix(1, 0, 0, -1, 568.2797, 274.2781);}#SywHHc-HJz7{font-size: 10px;font-variant: normal;font-weight: normal;font-stretch: condensed;-webkit-writing-mode: lr-tb;-ms-writing-mode: lr-tb;writing-mode: lr-tb;fill: #231f20;fill-opacity: 1;fill-rule: nonzero;stroke: none;font-family: Swis721 Cn BT;-inkscape-font-specification: Swiss721BT-RomanCondensed;}#S1dHScZH1Mm{font-size: 10px;font-variant: normal;font-weight: normal;font-stretch: condensed;-webkit-writing-mode: lr-tb;-ms-writing-mode: lr-tb;writing-mode: lr-tb;fill: #231f20;fill-opacity: 1;fill-rule: nonzero;stroke: none;font-family: Swis721 Cn BT;-inkscape-font-specification: Swiss721BT-RomanCondensed;}#SJYBrqZSkMQ{font-size: 10px;font-variant: normal;font-weight: normal;font-stretch: condensed;-webkit-writing-mode: lr-tb;-ms-writing-mode: lr-tb;writing-mode: lr-tb;fill: #231f20;fill-opacity: 1;fill-rule: nonzero;stroke: none;font-family: Swis721 Cn BT;-inkscape-font-specification: Swiss721BT-RomanCondensed;}#ryqrH5ZHyGX{font-size: 10px;font-variant: normal;font-weight: normal;font-stretch: condensed;-webkit-writing-mode: lr-tb;-ms-writing-mode: lr-tb;writing-mode: lr-tb;fill: #231f20;fill-opacity: 1;fill-rule: nonzero;stroke: none;font-family: Swis721 Cn BT;-inkscape-font-specification: Swiss721BT-RomanCondensed;}#SJoSB5ZB1fm{font-size: 10px;font-variant: normal;font-weight: normal;font-stretch: condensed;-webkit-writing-mode: lr-tb;-ms-writing-mode: lr-tb;writing-mode: lr-tb;fill: #231f20;fill-opacity: 1;fill-rule: nonzero;stroke: none;font-family: Swis721 Cn BT;-inkscape-font-specification: Swiss721BT-RomanCondensed;}#ryhHBcbBkGX{-webkit-transform:  matrix(0.975143, 0, 0, -1, 687.692, 279.918);transform:  matrix(0.975143, 0, 0, -1, 687.692, 279.918);}#rJarHcZS1zQ{font-size: 10px;font-variant: normal;font-weight: normal;font-stretch: condensed;-webkit-writing-mode: lr-tb;-ms-writing-mode: lr-tb;writing-mode: lr-tb;fill: #231f20;fill-opacity: 1;fill-rule: nonzero;stroke: none;font-family: Swis721 Cn BT;-inkscape-font-specification: Swiss721BT-RomanCondensed;}#rJRSH9bBJfm{fill: none;stroke: #231f20;stroke-width: 1.99458075;stroke-linecap: butt;stroke-linejoin: miter;stroke-miterlimit: 22.9260006;stroke-opacity: 1;stroke-dasharray: none;}#B1yLHcWrJfm{opacity: 0.51769912;color: #000000;fill: none;stroke: #2aff80;stroke-width: 8;stroke-linecap: butt;stroke-linejoin: miter;stroke-miterlimit: 4;stroke-opacity: 0.99470903;stroke-dasharray: none;stroke-dashoffset: 0;marker: none;visibility: visible;display: inline;overflow: visible;enable-background: accumulate;}#BJ-8B5bB1zQ{-webkit-transform:  matrix(-1, 0, 0, 1, 335.91791, -4.0584382);transform:  matrix(-1, 0, 0, 1, 335.91791, -4.0584382);}#HkfUr5bSkMm{-webkit-transform:  translate(-95.403217px, -7.0149424px);transform:  translate(-95.403217px, -7.0149424px);}#rkQLH5bB1fm{fill: #ff811b;fill-opacity: 1;stroke: #231f20;stroke-width: 0.21541473;stroke-linecap: butt;stroke-linejoin: miter;stroke-miterlimit: 22.9260006;stroke-opacity: 1;stroke-dasharray: none;}#S1EIHcbSyG7{fill: #e9ecff;fill-opacity: 1;stroke: #231f20;stroke-width: 0.21541473;stroke-linecap: butt;stroke-linejoin: miter;stroke-miterlimit: 22.9260006;stroke-opacity: 1;stroke-dasharray: none;}#r1HLB9WrJfQ{fill: #eff1ff;fill-opacity: 1;stroke: #231f20;stroke-width: 0.21541473;stroke-linecap: butt;stroke-linejoin: miter;stroke-miterlimit: 22.9260006;stroke-opacity: 1;stroke-dasharray: none;}#rkxUHcWrkMX_BycA-rJG7{-webkit-animation-name:  rkxUHcWrkMX_BycA-rJG7_Animation;animation-name:  rkxUHcWrkMX_BycA-rJG7_Animation;-webkit-animation-timing-function:  cubic-bezier(0.42, 0, 0.58, 1);animation-timing-function:  cubic-bezier(0.42, 0, 0.58, 1);-webkit-transform-origin:  50% 50%;transform-origin:  50% 50%;transform-box:  fill-box;}</style>
  <g
     id="g4161"
     transform="matrix(0.99325293,-0.11596816,-0.11596816,-0.99325293,71.442542,870.00367)">
    <path
       d="m 129.04749,364.22665 c 32.36865,-0.0973 86.06357,24.67679 80.59676,80.93989 -1.31154,13.50324 -48.16647,125.44694 -54.68609,133.75547 -35.1403,108.14326 9.9574,0.17678 9.9574,0.17678 0,0 55.17433,-113.82766 57.71594,-128.60315 12.58574,-73.15857 -64.25133,-97.85178 -89.55621,-98.57989 -20.97688,-0.60305 -80.910897,10.42351 -80.775293,11.76539 l 1.666236,16.48689 c 0.217987,2.14966 57.411897,-15.88864 75.081257,-15.94141 z"
       id="HywH5WBJGQ"
       inkscape:connector-curvature="0"
       style="fill:none;stroke:#fbcbbb;stroke-width:0.19949514;stroke-linecap:butt;stroke-linejoin:miter;stroke-miterlimit:22.9260006;stroke-dasharray:none;stroke-opacity:1" />
    <path
       style="fill:#64c9eb;fill-opacity:1;fill-rule:nonzero;stroke:none;stroke-width:0.92609787"
       inkscape:connector-curvature="0"
       d="M 54.400843,649.45705 663.81716,582.4629 619.92642,196.12747 15.353242,263.37683 Z"
       id="SJtHq-H1GQ" />
    <path
       style="fill:#66a1ab;fill-opacity:1;fill-rule:evenodd;stroke:none;stroke-width:0.92609787"
       inkscape:connector-curvature="0"
       d="m 293.76789,553.46362 c 2.1214,-0.18888 4.76587,-0.82275 5.0136,1.35776 0.0957,0.8423 -0.85149,2.01016 -1.7044,2.10504 -2.73248,0.30394 -3.00379,-0.77453 -3.3092,-3.4628"
       id="HJ5r5-H1zX" />
    <path
       style="fill:#66a1ab;fill-opacity:1;fill-rule:evenodd;stroke:none;stroke-width:0.92609787"
       inkscape:connector-curvature="0"
       d="m 618.02291,516.43786 c -0.17596,-1.54879 0.25145,-2.9016 1.5969,-3.05126 2.21222,-0.24607 2.17168,2.43637 2.45658,4.51582 -1.87941,0.054 -3.83352,0.47166 -4.05348,-1.46456"
       id="HyjHq-SyGQ" />
    <path
       style="fill:#9cce28;fill-opacity:1;fill-rule:evenodd;stroke:none;stroke-width:0.92609787"
       inkscape:connector-curvature="0"
       d="m 412.50776,614.96315 -0.3224,-2.83778 c -2.20317,-3.47135 -3.92903,-8.194 -6.19474,-11.7627 l -0.32229,-2.83687 -0.1075,-0.94622 -0.21489,-1.89154 c 1.31859,-3.30185 0.50975,-3.81559 4.26049,-5.26299 -1.55968,-3.93526 -2.70015,-2.05542 -3.73816,-7.2469 6.00187,-1.16978 10.62481,-5.39213 12.46799,-10.00684 l -0.32229,-2.83685 1.33867,-4.95367 1.96263,-0.20265 3.83859,-0.42698 c 0.38525,-3.22295 3.94508,-9.70313 5.57691,-12.84227 2.12587,-4.08675 2.59259,-8.86589 4.10514,-13.13735 l -0.32239,-2.83777 -0.64479,-5.67554 0.83224,-1.95724 -0.41034,-2.87876 c -0.17585,-1.54787 0.25248,-2.9008 1.59701,-3.05036 1.84999,-0.20578 2.42056,2.83978 3.41658,4.40812 l 1.9193,-0.21349 c 2.15124,-0.23929 2.02196,-0.98186 3.6237,-2.31853 l 0.35727,-3.91402 -0.14934,-2.81363 -0.2149,-1.89154 c -0.37769,-3.32456 9.09263,-7.54516 12.17717,-7.88827 2.03019,-0.22582 0.52679,-2.75961 3.16931,-2.43875 0.99539,2.50997 5.63352,10.86695 8.96664,10.49619 2.2113,-0.24597 2.80463,-0.97846 2.55701,-3.15806 l -0.21489,-1.89154 -0.21489,-1.89154 c 1.53514,-1.28034 9.7414,-5.17848 11.4916,-5.37316 l 1.9193,-0.2135 1.02384,-3.76292 6.84745,5.40837 -1.02962,-5.97428 2.87847,-0.32018 c 4.80662,3.74485 5.59785,6.12153 7.88226,3.20796 1.19965,0.9309 5.0158,4.93548 5.6682,4.86291 1.29463,-0.14401 1.96038,-0.41191 2.34521,-1.30767 4.34704,-0.58047 5.93316,-2.88651 8.63327,-4.70259 l 1.9193,-0.21349 c 4.99183,-0.55527 12.5041,7.22908 15.36133,6.91125 l 0.9601,-0.10679 c 2.94409,-0.32749 3.88396,-2.79519 4.26142,-5.26309 6.48187,-0.57701 9.8462,2.02024 14.07985,4.18109 l 0.3224,2.83777 c 3.99597,-0.77958 3.03904,-1.42731 6.50207,-2.63962 2.86644,7.97526 4.40559,5.3052 12.80469,6.83563 5.45212,0.99236 8.97218,2.80242 14.29718,3.91138 6.09551,1.26879 9.83428,1.57755 15.06283,4.04498 5.93742,2.8012 7.24906,5.93695 10.96162,8.03299 l 2.51258,6.47488 0.58776,3.71567 1.25165,1.72637 0.46063,4.78768 c 1.11584,1.75809 5.14629,11.08362 5.45046,13.76096 l 0.53729,4.72931 -3.8386,0.42698 c -4.95856,0.55156 -5.69034,3.17058 -7.03249,6.52859 l 0.21499,1.89245 0.1074,0.94532 c 0.21303,1.87514 -3.53932,6.01819 -4.79081,9.15287 l 0.2149,1.89154 0.32239,2.83777 c 0.3574,3.14589 2.03812,2.57862 5.12109,2.30399 9.47165,-2.1697 13.49839,-3.79263 25.80212,-2.96701 1.7037,-7.8439 2.45942,-15.57314 4.34356,-23.28665 0.87605,-3.58125 2.02999,-7.46758 3.77303,-10.81387 2.40599,-4.61915 4.0158,-4.18805 7.33841,-8.0119 9.24974,72.19201 8.7952,-19.30728 4.78008,40.38525"
       id="HJ2BqWS1zQ" />
    <path
       style="fill:none;stroke:#231f20;stroke-width:1.84717703;stroke-linecap:butt;stroke-linejoin:miter;stroke-miterlimit:22.9260006;stroke-dasharray:none;stroke-opacity:1"
       inkscape:connector-curvature="0"
       d="m 662.51207,585.27832 -50.30873,5.35186 -200.01798,21.49519 c -2.20317,-3.47135 -3.92903,-8.194 -6.19474,-11.7627 l -0.32229,-2.83687 -0.1075,-0.94622 -0.21489,-1.89154 c 1.31859,-3.30185 0.50975,-3.81559 4.26049,-5.26299 -1.55968,-3.93526 -2.70015,-2.05542 -3.73816,-7.2469 6.00187,-1.16978 10.62481,-5.39213 12.46799,-10.00684 l -0.32229,-2.83685 1.33867,-4.95367 1.96263,-0.20265 3.83859,-0.42698 c 0.38525,-3.22295 3.94508,-9.70313 5.57691,-12.84227 2.12587,-4.08675 2.59259,-8.86589 4.10514,-13.13735 l -0.32239,-2.83777 -0.64479,-5.67554 0.83224,-1.95724 -0.41034,-2.87876 c -0.17585,-1.54787 0.25248,-2.9008 1.59701,-3.05036 1.84999,-0.20578 2.42056,2.83978 3.41658,4.40812 l 1.9193,-0.21349 c 2.15124,-0.23929 2.02196,-0.98186 3.6237,-2.31853 l 0.35727,-3.91402 -0.14934,-2.81363 -0.2149,-1.89154 c -0.37769,-3.32456 9.09263,-7.54516 12.17717,-7.88827 2.03019,-0.22582 0.52679,-2.75961 3.16931,-2.43875 0.99539,2.50997 5.63352,10.86695 8.96664,10.49619 2.2113,-0.24597 2.80463,-0.97846 2.55701,-3.15806 l -0.21489,-1.89154 -0.21489,-1.89154 c 1.53514,-1.28034 9.7414,-5.17848 11.4916,-5.37316 l 1.9193,-0.2135 1.02384,-3.76292 6.84745,5.40837 -1.02962,-5.97428 2.87847,-0.32018 c 4.80662,3.74485 5.59785,6.12153 7.88226,3.20796 1.19965,0.9309 5.0158,4.93548 5.6682,4.86291 1.29463,-0.14401 1.96038,-0.41191 2.34521,-1.30767 4.34704,-0.58047 5.93316,-2.88651 8.63327,-4.70259 l 1.9193,-0.21349 c 4.99183,-0.55527 12.5041,7.22908 15.36133,6.91125 l 0.9601,-0.10679 c 2.94409,-0.32749 3.88396,-2.79519 4.26142,-5.26309 6.48187,-0.57701 9.8462,2.02024 14.07985,4.18109 l 0.3224,2.83777 c 3.99597,-0.77958 3.03904,-1.42731 6.50207,-2.63962 2.86644,7.97526 4.40559,5.3052 12.80469,6.83563 5.45212,0.99236 8.97218,2.80242 14.29718,3.91138 6.09551,1.26879 9.83428,1.57755 15.06283,4.04498 5.93742,2.8012 7.24906,5.93695 10.96162,8.03299 l 2.51258,6.47488 0.58776,3.71567 1.25165,1.72637 0.46063,4.78768 c 1.11584,1.75809 5.14629,11.08362 5.45046,13.76096 l 0.53729,4.72931 -3.8386,0.42698 c -4.95856,0.55156 -5.69034,3.17058 -7.03249,6.52859 l 0.21499,1.89245 0.1074,0.94532 c 0.21303,1.87514 -3.53932,6.01819 -4.79081,9.15287 l 0.2149,1.89154 0.32239,2.83777 c 0.3574,3.14589 2.03812,2.57862 5.12109,2.30399 16.04568,-0.40733 2.0845,1.20552 12.31179,-0.54636 4.40235,-0.75411 12.11875,4.77383 13.49033,-2.42065 1.7037,-7.8439 2.45942,-15.57314 4.34356,-23.28665 0.87605,-3.58125 2.02999,-7.46758 3.77303,-10.81387 2.40599,-4.61915 4.0158,-4.18805 7.33841,-8.0119 l 4.66196,40.96956 z"
       id="rJpS5bryM7" />
    <path
       style="fill:#649fa7;fill-opacity:1;fill-rule:evenodd;stroke:none;stroke-width:0.92609787"
       inkscape:connector-curvature="0"
       d="m 312.50853,521.68764 3.83859,-0.42699 0.42978,3.78308 -3.83858,0.42698 z"
       id="Sk0S5ZSkMm" />
    <path
       style="fill:#66a1ab;fill-opacity:1;fill-rule:evenodd;stroke:none;stroke-width:0.92609787"
       inkscape:connector-curvature="0"
       d="m 318.789,508.53771 c 2.1214,-0.18888 4.76587,-0.82275 5.01359,1.35776 0.0956,0.8414 -0.85056,2.01006 -1.7044,2.10504 -2.73248,0.30394 -3.00378,-0.77453 -3.30919,-3.4628"
       id="SJJxHqbB1z7" />
    <path
       style="fill:#66a5b3;fill-opacity:1;fill-rule:evenodd;stroke:none;stroke-width:0.92609787"
       inkscape:connector-curvature="0"
       d="m 327.41865,498.95763 c -0.17596,-1.54878 0.25238,-2.9017 1.5969,-3.05126 1.57092,-0.17474 2.94372,0.24581 3.0944,1.57216 0.17575,1.54697 -0.25248,2.9008 -1.59701,3.05036 -1.57092,0.17474 -2.94371,-0.24581 -3.09429,-1.57126"
       id="ryxgS9-Syfm" />
    <path
       style="fill:#66a5b3;fill-opacity:1;fill-rule:evenodd;stroke:none;stroke-width:0.92609787"
       inkscape:connector-curvature="0"
       d="m 358.32023,471.57565 c -0.17596,-1.54879 0.25145,-2.9016 1.5969,-3.05126 1.57,-0.17464 2.94279,0.2459 3.09348,1.57226 0.17574,1.54696 -0.25249,2.90079 -1.59609,3.05025 -1.57092,0.17474 -2.94371,-0.24581 -3.09429,-1.57125"
       id="HyZer9ZSyGQ" />
    <path
       style="fill:#64c9eb;fill-opacity:1;fill-rule:evenodd;stroke:none;stroke-width:0.92609787"
       inkscape:connector-curvature="0"
       d="m 88.113217,488.22265 c -1.02535,-0.35211 -4.70496,-1.39209 -5.97278,-1.25106 -2.77129,0.30826 -7.02277,3.8385 -8.09908,5.68997 l -1.9193,0.21349 -5.75881,0.64058 -5.59198,2.41377 -3.78867,0.54513 -4.268385,-3.35611 -3.066339,0.27277 0.824647,-2.89706 8.696417,-0.88521 1.75175,-1.23519 2.87848,-0.32018 5.81885,-0.56512 1.75175,-1.23519 3.89781,-0.35051 1.75269,-1.2353 2.93851,-0.24473 1.75186,-1.23428 3.7896,-0.54523 5.59188,-2.41468 3.83859,-0.42698 c 4.08004,-2.51884 10.048833,-3.91387 14.463563,-6.71548 4.63835,-2.94186 8.72034,-4.9329 13.0364,-7.83707 l 0.85386,0.6712 -1.49065,2.27326 0.32239,2.83778 0.42979,3.78308 c -4.16925,10.43978 -2.34638,11.82383 -12.4601,18.62593 l -1.92022,0.21359 -2.8538,0.15036 -3.97067,-0.3485 c -1.01198,-1.08285 -6.945243,-5.00887 -8.429363,-5.76689 l -4.7987,0.53378 z"
       id="S1MlS9WS1Mm" />
    <path
       style="fill:#64c9eb;fill-opacity:1;fill-rule:evenodd;stroke:none;stroke-width:0.92609787"
       inkscape:connector-curvature="0"
       d="m 206.98016,448.1825 c 1.17233,-1.74768 1.65748,-1.14255 4.6912,-1.48001 l 1.75186,-1.23428 2.93852,-0.24473 c 6.67449,-4.12008 15.88301,-6.37858 23.02458,-11.18109 l 0.29238,2.09615 8.34396,-3.05681 c -1.45066,5.95293 -11.54955,5.34084 -14.38729,10.22033 4.46095,-0.87099 4.39849,-2.29394 9.38251,-2.95911 -0.42532,2.77971 -9.32114,14.44587 -11.93163,14.73625 -4.07885,0.45371 -5.45352,-1.27651 -7.87969,-3.21009 -3.28322,-2.61643 -3.76108,-2.25957 -7.48174,-3.70207 l -1.9193,0.21349 -2.92101,0.40705 -1.98508,-0.81861 -1.9193,0.2135 z"
       id="SJmgHcbBJf7" />
    <path
       style="fill:#66a1ab;fill-opacity:1;fill-rule:evenodd;stroke:none;stroke-width:0.92609787"
       inkscape:connector-curvature="0"
       d="m 567.47168,387.96986 c 1.8793,-0.0549 3.83352,-0.47166 4.05349,1.46456 0.17585,1.54787 -0.25238,2.9017 -1.59691,3.05126 -2.16325,0.24063 -2.21517,-2.39091 -2.45658,-4.51582"
       id="HkNxr9brkMX" />
    <path
       style="fill:#66a5b3;fill-opacity:1;fill-rule:evenodd;stroke:none;stroke-width:0.92609787"
       inkscape:connector-curvature="0"
       d="m 391.85558,407.50442 c -0.17596,-1.54879 0.25238,-2.9017 1.5969,-3.05126 1.57092,-0.17474 2.94372,0.2458 3.0943,1.57126 0.17585,1.54787 -0.25238,2.9017 -1.59783,3.05136 -1.57,0.17464 -2.94279,-0.24592 -3.09337,-1.57136"
       id="S1rgS5bSJMQ" />
    <path
       style="fill:#5e948c;fill-opacity:1;fill-rule:evenodd;stroke:none;stroke-width:0.92609787"
       inkscape:connector-curvature="0"
       d="m 65.251957,440.96052 c 2.6879,-1.80826 2.91871,-2.90659 6.39561,-3.58504 0.90353,2.46758 1.16175,1.67637 1.38907,3.6773 l 0.27064,1.91304 -1.54528,3.97508 -1.91929,0.2135 c -3.4856,0.38771 -3.46768,-3.07039 -4.59078,-6.19387"
       id="rkIlrcWB1zX" />
    <path
       style="fill:#64c9eb;fill-opacity:1;fill-rule:evenodd;stroke:none;stroke-width:0.92609787"
       inkscape:connector-curvature="0"
       d="m 359.91711,468.52471 c -1.34545,0.14966 -1.77286,1.50247 -1.5969,3.05126 0.15048,1.32454 1.52338,1.746 3.0943,1.57126 1.34452,-0.14956 1.77182,-1.50329 1.59597,-3.05116 -0.15058,-1.32544 -1.52337,-1.746 -3.09337,-1.57136"
       id="SkvlBcbryf7" />
    <path
       style="fill:#64c9eb;fill-opacity:1;fill-rule:evenodd;stroke:none;stroke-width:0.92609787"
       inkscape:connector-curvature="0"
       d="m 329.01531,495.90651 c -1.34452,0.14956 -1.77285,1.50248 -1.5969,3.05127 0.15058,1.32544 1.52338,1.74599 3.0943,1.57125 1.34452,-0.14955 1.77275,-1.50338 1.5969,-3.05126 -0.15058,-1.32545 -1.52337,-1.746 -3.0943,-1.57126"
       id="rJulHq-ryzm" />
    <path
       style="fill:#64c9eb;fill-opacity:1;fill-rule:evenodd;stroke:none;stroke-width:0.92609787"
       inkscape:connector-curvature="0"
       d="m 318.78901,508.53763 c 0.30541,2.68827 0.57671,3.76675 3.30828,3.4629 0.85476,-0.0951 1.8009,-1.26374 1.70531,-2.10513 -0.24772,-2.18052 -2.89311,-1.54656 -5.01359,-1.35777"
       id="Bytgr5WBkzX" />
    <path
       style="fill:#64c9eb;fill-opacity:1;fill-rule:evenodd;stroke:none;stroke-width:0.92609787"
       inkscape:connector-curvature="0"
       d="m 316.34739,521.261 -3.83859,0.42699 0.42978,3.78308 3.8386,-0.42698 z"
       id="BJ5eS5ZrkGm" />
    <path
       style="fill:#64c9eb;fill-opacity:1;fill-rule:evenodd;stroke:none;stroke-width:0.92609787"
       inkscape:connector-curvature="0"
       d="m 293.76756,553.46438 c 0.3053,2.68736 0.57671,3.76674 3.30919,3.4628 0.85384,-0.095 1.79999,-1.26364 1.7043,-2.10594 -0.24762,-2.17961 -2.89208,-1.54575 -5.01349,-1.35686"
       id="HJogHcZrkGQ" />
    <path
       style="fill:#64c9eb;fill-opacity:1;fill-rule:evenodd;stroke:none;stroke-width:0.92609787"
       inkscape:connector-curvature="0"
       d="m 245.84469,627.75569 -0.21489,-1.89154 -0.1074,-0.94532 c -0.53563,-4.71473 -6.08193,-2.21189 -6.61756,-6.92661 -0.73333,-6.45495 11.48782,-27.53006 17.03683,-29.67135 0.4399,-2.88195 0.21587,-1.57576 1.48951,-3.99658 l -0.32239,-2.83777 0.74429,-1.99823 c 8.4687,-2.96362 7.36911,-3.63979 13.26893,-8.5165 3.87177,-3.19907 7.62881,-5.98291 10.63811,-9.72299 4.87973,-6.06389 4.42783,-6.15393 7.49528,-13.05565 1.60304,-3.60674 3.6253,-10.45866 7.37659,-12.28829 l -0.0412,10.50953 6.84854,-1.77259 2.65488,-3.89451 -1.40681,-3.86641 -0.5931,-3.72153 -0.96708,-8.5124 -0.21489,-1.89154 c 3.72784,-9.33372 4.5224,-9.88457 11.4517,-16.83555 4.18769,-4.19886 11.6481,-10.06611 14.11606,-14.74108 1.95998,-3.71013 6.30523,-15.86246 7.3457,-20.06386 0.97388,-3.93091 1.82599,-6.4627 2.85382,-10.67654 0.54843,-2.24784 1.85843,-8.92823 2.55899,-10.90776 l -0.32239,-2.83777 0.6368,-2.94446 -0.2149,-1.89154 -0.21489,-1.89155 -0.21489,-1.89154 c -2.38378,-3.44665 -5.78776,-7.0189 -11.41535,-6.39292 l -4.02552,0.37945 0.82475,-2.89614 -1.9193,0.2135 0.32229,2.83686 c -1.60266,1.33676 -1.47235,2.08014 -3.62359,2.31943 l -0.96011,0.1068 -1.91929,0.21349 c -3.04998,-1.1811 -6.69023,-1.44635 -9.40925,-3.47844 -4.67997,-3.49493 -3.48963,-2.85193 -9.04649,-5.00499 l -1.91928,0.21349 -4.7987,0.53378 -1.9193,0.21349 c -3.41506,-1.32233 -1.79596,0.12135 -4.16088,-2.40986 -6.20588,0.55183 -3.79252,-0.1477 -6.29517,-4.08884 l -1.9193,0.21349 -2.87848,0.32019 0.2149,1.89154 3.72537,-0.37749 1.50219,3.62686 c -4.01251,0.78235 -13.54921,5.69528 -16.62887,7.59697 l -2.93853,0.24473 -1.75185,1.23429 -3.83952,0.42708 -1.91837,0.21339 c -2.26691,-0.87773 -3.06884,-1.25654 -5.1211,-2.30399 l -0.32229,-2.83686 -2.87847,0.32019 c 3.34306,-3.58613 19.18863,-10.87902 24.62055,-14.23226 l 3.83951,-0.42708 1.75094,-1.23419 5.81782,-0.56593 9.59648,-1.06746 5.75881,-0.64058 1.98508,0.81861 3.8803,-0.51283 c 3.70993,1.27385 9.79779,1.5447 14.27759,2.85753 4.61917,1.35363 8.93583,2.38367 13.38476,3.96025 4.50759,1.59866 8.49446,3.21002 12.57318,4.96255 4.15638,1.78543 7.00008,4.1572 10.72282,6.16995 10.41969,5.63504 29.7958,24.67427 36.63658,34.5623 l 0.21499,1.89245 0.53719,4.7284 0.215,1.89245 c -4.34483,10.87932 -11.88546,31.6572 -20.97505,37.77121 l -1.91929,0.21349 -2.87848,0.32019 c -3.44955,0.3837 -3.9721,4.6715 -5.00663,7.26143 l 0.21489,1.89154 0.42979,3.78308 c 0.24099,2.12127 -0.52367,2.16109 -1.4894,3.9975 l -4.76804,1.23192 -2.80175,0.56735 -1.75175,1.2352 -3.89863,0.35153 -1.91929,0.21349 c -12.39649,8.33821 -14.21045,18.12737 -19.34703,32.16039 -4.28662,11.71288 -6.73226,26.55893 -9.38032,39.13726"
       id="SJheH5WrJGQ" />
    <path
       style="fill:#50814c;fill-opacity:1;fill-rule:evenodd;stroke:none;stroke-width:0.92609787"
       inkscape:connector-curvature="0"
       d="m 127.30708,431.18452 c -0.24762,-2.1796 0.34572,-2.91208 2.55702,-3.15805 l 4.77416,-0.51909 -3.60705,-6.31529 3.83859,-0.42699 c 1.3392,2.10987 4.49453,7.3483 5.01973,9.97797 l -4.79777,0.53368 c -2.88772,0.32121 -7.42407,3.08188 -7.78468,-0.0923"
       id="HyaxHqWByzm" />
    <path
       style="fill:#66a1ab;fill-opacity:1;fill-rule:evenodd;stroke:none;stroke-width:0.92609787"
       inkscape:connector-curvature="0"
       d="m 406.23587,388.66469 c 1.57,-0.17464 2.94279,0.24591 3.09337,1.57136 0.24772,2.18051 -2.47296,2.14344 -4.58288,2.42522 -0.0532,-1.85229 -0.47503,-3.77806 1.48951,-3.99658"
       id="BJCeB9-SyGm" />
    <path
       style="fill:#64c9eb;fill-opacity:1;fill-rule:evenodd;stroke:none;stroke-width:0.92609787"
       inkscape:connector-curvature="0"
       d="m 129.86372,428.02681 c -2.2113,0.24597 -2.80463,0.97845 -2.55701,3.15805 0.36061,3.17415 4.89778,0.41247 7.7855,0.0912 l 4.79778,-0.53368 c -0.5252,-2.62966 -3.68136,-7.86707 -5.02057,-9.97695 l -3.83858,0.42698 3.60705,6.3153 -4.77416,0.51909 z"
       id="BykbBqWByGX" />
    <path
       style="fill:#64c9eb;fill-opacity:1;fill-rule:evenodd;stroke:none;stroke-width:0.92609787"
       inkscape:connector-curvature="0"
       d="m 202.14519,405.61938 2.26802,1.39824 c -4.86758,1.93718 -7.87591,5.61161 -11.85651,8.28923 -2.31053,-1.17934 -3.80183,-3.40892 -6.1887,-3.14342 l -3.83859,0.42699 -1.9193,0.21349 c -3.51377,2.36352 -6.33757,5.08417 -9.02052,8.4104 -4.10437,5.08869 -4.21086,4.4479 -9.51975,8.01914 l -1.9193,0.21349 -2.8794,0.32029 -1.75186,1.23429 -3.89862,0.35152 -1.75187,1.23429 -4.85863,0.45924 -1.75093,1.23418 -3.89863,0.35153 -1.75279,1.23438 -4.85771,0.45914 c -3.73728,2.30716 -11.07979,4.13009 -14.81708,6.43725 l -2.8794,0.32029 c -2.47576,-1.3982 -3.48105,-3.10582 -4.51284,-5.99392 l 3.65316,-1.57316 2.8794,-0.32029 1.9193,-0.21349 1.9193,-0.21349 c 3.94591,-2.65346 2.46059,0.4657 2.44869,-4.10328 l -15.18275,1.62053 -1.45319,-2.64367 -0.2149,-1.89155 -0.32229,-2.83686 -0.21499,-1.89245 c 2.25406,-5.64352 2.67234,-2.82657 5.0057,-7.26133 3.90625,-0.76222 2.03646,-1.18378 5.65049,-1.58579 1.74835,-0.19447 1.70406,1.26896 2.24169,2.62428 1.14041,-0.76841 3.69091,-1.72691 3.5162,-3.26475 -0.0642,-0.56519 -1.54717,-1.81535 -2.24169,-2.62428 l -1.91929,0.21349 -3.8386,0.42699 c -0.11916,-4.10473 -0.3295,-1.68956 1.38201,-4.94281 4.46106,-0.87008 4.39756,-2.29383 9.38158,-2.959 l 0.2149,1.89154 c 3.22885,-0.62963 3.4314,-1.11186 5.54299,-2.53202 l -0.42978,-3.78309 1.91928,-0.21349 c 1.21752,3.38623 5.75566,14.20702 7.89388,16.13479 2.36557,2.13325 10.8717,10.51137 13.56351,10.21195 l 0.95919,-0.10669 1.94397,-0.17749 5.41082,-3.51427 c -3.87118,-4.51354 -8.72108,-7.35449 -11.95253,-11.12132 0.0167,-0.0175 1.68243,-1.14534 1.8118,-1.15973 1.4785,-0.16446 3.74915,3.41479 5.22766,3.25032 l 2.81621,-0.48126 3.79337,-1.21213 c -0.8096,-2.04417 -0.54602,-2.8129 -3.20087,-2.51759 l -3.8386,0.42698 c 3.31229,-3.55223 6.93742,-2.68711 6.78156,-7.79025 l -9.13064,4.22067 -0.5381,-4.84369 13.54328,-0.43475 0.4299,3.784 c 0.25828,2.27349 -1.23935,2.95332 -2.2794,5.24755 l 6.54777,-1.89146 -0.42979,-3.78308 c 2.04954,1.85547 3.73951,5.11714 4.80567,8.08541 l 4.7987,-0.53378 c -0.89005,-4.44914 -3.30316,-7.1079 -4.18697,-11.80696 l 2.68261,-1.43475 c 1.88999,2.73263 4.86941,7.42753 6.08724,10.81649 1.84461,-0.36026 3.84366,-0.38231 3.62369,-2.31852 -0.18009,-1.58525 -4.10121,-7.41975 -5.04586,-10.02676 l 2.79721,-1.21672 c 0.78708,3.93812 1.44531,2.99442 2.67148,6.40737 l 3.83859,-0.42698 -0.2149,-1.89155 2.94715,-0.34998 -2.84764,-7.3238 c 3.79271,3.43579 5.57322,9.87487 8.43726,14.38598"
       id="SkeZr5bS1zm" />
    <path
       style="fill:#66a1ad;fill-opacity:1;fill-rule:evenodd;stroke:none;stroke-width:0.92609787"
       inkscape:connector-curvature="0"
       d="m 405.37622,381.0979 c 2.21223,-0.24608 2.1725,2.43535 2.45658,4.51581 l -3.83859,0.42699 c -0.18986,-2.09095 -0.83021,-4.69673 1.38201,-4.9428"
       id="HyZZHqZrJMm" />
    <path
       style="fill:#649fa7;fill-opacity:1;fill-rule:evenodd;stroke:none;stroke-width:0.92609787"
       inkscape:connector-curvature="0"
       d="m 407.08053,378.9926 c -0.0957,-0.8423 0.85056,-2.01005 1.7044,-2.10503 1.57,-0.17464 2.94279,0.24591 3.09337,1.57136 0.0956,0.84139 -0.85056,2.01005 -1.70347,2.10493 -1.57093,0.17474 -2.94372,-0.24581 -3.0943,-1.57126"
       id="HyMZH9ZSyGm" />
    <path
       style="fill:#649fa7;fill-opacity:1;fill-rule:evenodd;stroke:none;stroke-width:0.92609787"
       inkscape:connector-curvature="0"
       d="m 453.03603,372.92313 -0.2149,-1.89154 -0.21489,-1.89154 c -0.17596,-1.54879 0.25238,-2.9017 1.5969,-3.05126 2.57354,-0.28627 2.89331,4.95002 8.42936,5.76688 1.25262,3.15985 2.20369,2.28973 2.34909,3.5696 0.24617,2.16684 -0.20027,1.13647 -0.53023,3.89079 -3.95161,1.52421 -1.46321,2.0782 -4.58288,2.42522 l -2.87848,0.32018 c -0.58511,-4.28551 -2.11345,-6.47866 -3.95397,-9.13833"
       id="S1XbS5ZryfQ" />
    <path
       style="fill:#64c9eb;fill-opacity:1;fill-rule:evenodd;stroke:none;stroke-width:0.92609787"
       inkscape:connector-curvature="0"
       d="m 222.61248,397.59644 -3.65014,2.26701 -1.89286,0.26496 c -1.85184,0.20599 -1.67474,0.48815 -2.77098,1.26642 l -0.2149,-1.89155 c -2.25934,-3.26571 -3.94854,-3.39075 -4.69826,-7.14009 l 3.83858,-0.42698 c 1.91376,-0.21288 8.26566,4.35059 9.38855,5.66019"
       id="SyNWr9-B1fm" />
    <path
       style="fill:#66caea;fill-opacity:1;fill-rule:evenodd;stroke:none;stroke-width:0.92609787"
       inkscape:connector-curvature="0"
       d="m 225.70628,399.16767 -0.2149,-1.89154 c 0.80009,-0.5681 1.84939,-0.82882 1.7044,-2.10504 -0.189,-1.66365 -6.09153,-3.74593 -7.68507,-7.76512 5.8637,-0.17039 4.49552,2.07726 10.0734,2.71869 l 0.24875,-5.81647 4.82023,-2.38701 -0.53231,5.77509 0.51774,3.82408 -0.83223,1.95724 0.64479,5.67554 -1.9193,0.21349 -1.98519,-0.81951 -4.84031,0.62054 z"
       id="HJH-S9bSJf7" />
    <path
       style="fill:#9cce28;fill-opacity:1;fill-rule:evenodd;stroke:none;stroke-width:0.92609787"
       inkscape:connector-curvature="0"
       d="m 366.19725,283.8479 -2.9618,0.49284 -1.98509,-0.8186 -2.90121,0.37537 -4.03167,-1.51961 -1.91929,0.21349 -2.87848,0.32019 c -3.26197,-1.11966 -5.33867,-0.36434 -9.70398,0.12124 l -0.85957,-7.56618 c -0.80604,-7.09487 7.34751,-12.30535 7.13189,-14.20328 -0.24752,-2.17869 -0.99039,-2.76253 -3.20169,-2.51656 l -1.91837,0.21339 -1.92022,0.21359 c -4.7894,-1.85533 -6.61705,-5.00291 -10.34773,-5.5535 l 0.32229,2.83686 c 0.32798,2.88699 1.35502,3.71524 2.56407,5.46204 l 0.2149,1.89154 1.39696,12.2964 c -3.59103,-1.83355 -9.95981,-9.42847 -13.65795,-9.01711 l -2.8794,0.32029 -1.9193,0.2135 c -3.18077,2.14003 -9.89792,6.96364 -9.37358,11.579 l 0.24584,2.89706 1.25155,1.72545 0.32229,2.83687 0.21489,1.89154 c 3.06122,4.4264 4.38151,6.73224 10.56273,7.44595 1.227,3.41194 1.8843,2.46833 2.84215,6.19637 l 1.96352,1.88904 c 3.62262,-3.01996 6.57965,-5.8939 10.40021,-9.04943 2.15418,-1.77843 9.30902,-6.01102 11.97958,-7.8072 l 1.9193,-0.21349 1.91929,-0.2135 1.9193,-0.21349 c 2.49598,0.96671 4.67033,1.5898 7.43989,2.67469 1.32123,0.5186 6.67651,3.41778 6.85486,3.39795 4.38656,-0.48794 13.89388,-6.69734 15.45478,-9.38181 l -7.67718,0.85397 -4.83938,0.62044 -1.9444,-0.90529 z"
       id="SJL-S9Wrkfm" />
    <path
       style="fill:#9cce28;fill-opacity:1;fill-rule:evenodd;stroke:none;stroke-width:0.92609787"
       inkscape:connector-curvature="0"
       d="m 258.93468,349.49753 0.21489,1.89155 0.53729,4.72931 0.26433,1.86573 1.23211,2.75688 1.9193,-0.21349 c 0.55919,-3.66047 5.42409,-9.12177 8.13088,-11.69463 4.93825,-4.6922 7.78202,-4.6919 12.9665,-7.89206 l 2.93945,-0.24483 1.75175,-1.2352 3.83767,-0.42688 2.85922,-0.0614 4.92638,0.15358 c 0.43981,-2.88286 0.21577,-1.57666 1.56744,-3.79663 l 3.65317,-1.57316 2.87848,-0.32019 0.9601,-0.1068 c 2.24642,-0.24987 3.66026,-1.99673 3.40871,-4.21097 l -0.64469,-5.67463 -0.37275,-2.81185 -1.23119,-2.75699 c 1.70608,-3.24341 6.72981,-8.31991 10.73819,-9.86335 l -1.68678,-4.5516 -2.87849,0.32018 c -4.79685,0.53358 -8.56183,-1.192 -11.94658,-2.50295 l -0.21489,-1.89154 -0.30191,-1.93263 0.83223,-1.95724 -0.42989,-3.784 c -0.20226,-1.78033 -3.86251,-2.44399 -6.08028,-2.19729 l -5.75789,0.64047 c 1.06826,9.40302 -4.9138,12.5922 -10.75652,16.52191 l -1.9193,0.21349 -6.71706,0.74717 -1.9058,0.15934 -3.04557,-0.55757 -1.60975,-5.69374 -3.72176,1.57064 -1.98508,-0.81861 -2.8794,0.32029 -19.19295,2.13492 c 2.09334,2.24107 3.95091,1.7972 7.14777,3.03581 l 0.2149,1.89154 0.85968,7.56708 0.21489,1.89155 c 1.25637,1.81723 2.00549,3.55149 3.72501,5.1049 1.74779,1.57979 3.88323,1.99213 4.17403,4.55186 l 0.215,1.89245 0.21489,1.89155 c 0.61358,0.88716 5.76122,7.9385 5.76578,7.97861 0.17792,1.56611 -2.25893,7.40443 -2.87151,8.93939"
       id="B1Dbr5brJz7" />
    <path
       style="fill:#9cce28;fill-opacity:1;fill-rule:evenodd;stroke:none;stroke-width:0.92609787"
       inkscape:connector-curvature="0"
       d="m 40.022582,492.61493 c 7.992191,2.74249 11.026786,-0.84901 16.321435,6.80446 l -3.813083,0.25614 -3.971494,-0.34749 c -0.50593,-1.381 -0.533186,-2.81525 -2.241793,-2.62519 -2.915449,0.3243 -3.071856,2.00329 -3.408702,4.21098 6.012241,-0.53491 7.576734,2.32254 10.348657,5.5534 6.323455,-0.56308 8.462745,2.88954 11.945565,2.50213 2.55875,-0.28462 5.45028,-9.02314 6.46428,-11.28308 1.24844,-2.78264 7.10717,-8.42465 10.68702,-8.82285 4.81256,-0.53532 16.9138,7.10135 19.630743,10.26816 -1.40201,0.50027 -2.855803,0.52814 -2.664523,2.21183 0.36931,3.25072 4.522593,10.03328 7.900073,9.65758 l 1.9193,-0.21349 1.91929,-0.21349 c 1.65992,-4.68755 -0.97315,-2.23183 2.92519,-5.45232 2.06942,-1.70901 3.20327,-3.10348 5.00028,-4.68156 3.97611,-3.49131 6.25481,-6.04331 8.15822,-10.81149 l -0.215,-1.89245 -1.28936,-11.34925 -0.48026,-3.75809 -1.41811,-2.80451 0.82382,-2.89603 -0.21489,-1.89155 c -0.45081,-3.96813 -10.82859,-14.48922 -12.06791,-20.68664 -4.28956,-2.42233 -4.59075,-7.34683 -6.57636,-9.13372 -3.05929,-2.75395 -4.8359,0.81578 -9.752153,-6.29085 l -0.21489,-1.89154 -0.2149,-1.89154 c -1.37107,-2.15987 -2.12689,-4.12601 -3.63158,-6.30057 l -1.9193,0.2135 -1.91929,0.21349 c -3.98274,0.44302 -6.36591,-5.99641 -10.34865,-5.5534 l -0.95919,0.1067 -4.83949,0.61952 -1.98601,-0.8185 -2.87848,0.32019 c -4.80008,-1.85877 -3.95546,-2.57027 -7.65242,-4.5702 -4.858423,-2.62767 -3.727027,-1.97627 -9.199908,-3.73619 -2.367842,-0.76127 -13.440133,-10.27091 -13.664244,-12.24358 -0.438074,-3.85602 5.22888,-5.29686 4.790704,-9.15378 l -0.107396,-0.94532 -0.230899,-1.85099 -13.987748,-1.35648 -11.2292,-117.04681 496.848224,-58.61042 c 2.33328,-0.25954 8.27649,4.41308 8.53768,6.7121 l 0.21489,1.89155 0.27817,2.82699 -1.33867,4.95368 0.32239,2.83776 0.21489,1.89155 c 5.20396,7.52232 11.2288,5.56627 19.41574,8.37571 l 2.9202,-0.40603 1.98601,0.81851 4.79777,-0.53368 c -1.06126,2.01688 -4.30883,7.95091 -5.53505,9.29012 l -0.74526,3.85933 0.32239,2.83777 0.32239,2.83776 0.2149,1.89155 c -2.77496,6.94765 -5.20977,8.30683 -7.98462,15.25539 l 0.2149,1.89155 0.21489,1.89153 c 2.78799,4.03126 3.84033,5.32932 6.83246,8.81815 3.29046,-0.0955 3.59513,0.32935 6.28836,1.28612 l -1.2678,8.69084 0.62523,4.7703 -0.83316,1.95735 0.42979,3.78308 0.14935,2.81363 -0.35635,3.91392 c -2.48959,2.26069 -2.53091,4.45859 -5.96571,7.36904 -2.36948,2.00824 -4.66208,4.52025 -7.03157,6.52849 -5.10341,4.32564 -8.70065,8.96099 -7.66325,18.09235 l 0.3988,3.99608 -3.91498,-0.73133 -1.91929,0.21349 -2.87848,0.32019 c -4.27246,2.63716 -10.23247,4.09307 -13.85788,6.33055 l -2.79156,0.68992 -6.69742,1.32377 -4.7987,0.53378 c -0.70964,-1.79035 -10.03578,-16.32393 -11.4009,-17.1958 -2.26602,-1.44646 -18.08708,-6.34221 -20.39725,-6.08524 l -1.9193,0.21349 c -1.23964,0.83391 -6.17363,4.51761 -7.24647,4.63695 l -16.3154,1.81483 -2.87755,0.32009 c -3.37276,2.08107 -27.61619,15.52273 -30.27197,15.81814 -1.03774,0.11543 -3.03547,-2.53598 -6.08121,-2.19719 l -1.91837,0.21339 c -5.15729,3.18421 -9.58571,5.62641 -14.85117,8.99527 -6.01736,3.85037 -8.26598,6.38703 -13.07151,10.39429 -1.51994,-3.8326 -0.65855,-1.9585 -4.26847,-3.35701 l -1.9193,0.21349 -14.39518,1.60124 c -2.24642,0.24988 -4.01682,-1.14185 -4.26838,-3.3561 l -0.215,-1.89245 c 1.22036,-3.05462 0.77891,-3.90923 2.97302,-6.11858 l 0.64372,-4.81914 -0.2149,-1.89154 c -0.20795,-1.83047 -1.65534,-2.93228 -2.56408,-5.46206 -3.10237,-0.35739 -5.9545,-2.21035 -8.00039,-1.98278 -3.94301,0.4386 -12.04754,9.96007 -13.42718,10.11353 -1.06822,0.11883 -3.09056,-2.81509 -4.6007,-4.02439 -2.72347,-2.17836 -3.06788,-1.97297 -5.7528,-3.68022 -6.38675,-4.06296 -8.2314,-1.8417 -14.2899,-3.92142 l -3.83859,0.42698 -6.718,0.74727 -2.87848,0.32019 c -8.68214,5.35974 -7.73987,4.74168 -13.88866,12.33601 -1.91199,2.36167 -3.56184,4.69973 -5.54305,6.83924 -2.34536,2.53357 -5.72346,2.9038 -8.91297,5.04941 l -1.92022,0.21359 -1.91929,0.21349 c -2.31932,4.41013 -4.4388,4.89604 -6.60261,10.31259 l 0.2149,1.89154 0.30283,1.93254 -0.83212,1.95816 0.64468,5.67463 c 0.33482,2.94715 -3.50548,7.77385 -7.01147,8.42692 l 0.18598,-8.62589 0.10724,-2.84493 -0.44354,-7.93185 -7.19925,3.02642 -0.46393,5.76748 c -2.6967,-1.045 -4.44932,-1.99193 -7.22484,-3.19525 l -5.64931,2.91401 9.58054,7.44074 c -1.01175,2.68339 -5.69839,-2.18807 -11.10064,-5.55836 l -1.91929,0.21349 -1.91929,0.21349 c -1.57093,0.17474 -2.81509,0.88638 -2.66451,2.21183 0.49099,4.32183 4.19194,2.68335 5.12805,10.92318 l -9.59648,1.06746 c -1.39687,-3.88598 -5.3586,-11.15693 -7.47713,-14.49277 l -3.8386,0.42698 0.2149,1.89154 -2.87941,0.32029 c -3.48559,0.38772 -3.07971,1.20937 -6.3439,2.35156 1.44856,4.02793 4.83161,7.40773 5.53026,10.58397 0.0992,0.45329 -0.75439,0.57501 -1.68096,0.86177 l -6.03138,-11.13194 -5.43848,2.71886 c 0.7723,5.65305 3.243,6.80904 4.27637,11.9761 l -1.92021,0.2136 c -1.36138,-2.94744 -2.79292,-9.03301 -7.89915,-9.65768 -1.4881,-2.9675 1.16674,-0.82488 -3.2018,-2.51749 l -1.91929,0.2135 -0.95919,0.10669 -3.82407,0.37364 -3.01357,-0.60543 -4.67813,1.5127 0.85968,7.56709 c 3.46303,-1.21231 2.50609,-1.86005 6.71513,-2.32916 l -4.68834,3.06189 -1.91929,0.21349 -1.89317,0.26232 -2.79813,1.21681 c 1.82823,4.61064 9.09801,7.1224 11.01235,12.00501 l -2.68251,1.43565 -1.91928,0.21349 c -2.97921,0.33139 -11.51003,-8.21476 -14.72454,-9.85572 -0.75866,-5.55764 -4.86533,-11.2958 -6.73285,-16.49101 l -4.79778,0.53368 0.61267,5.8868 -3.91405,-0.73143 -2.8794,0.32029 -0.95919,0.1067 -1.91929,0.21349 c -1.72297,1.15908 -7.28622,4.30352 -7.03332,6.52961 0.24607,2.16593 0.45017,1.06319 1.38989,3.67629 -3.43788,1.20305 -10.01173,5.97011 -9.5895,9.68665 l 0.67381,1.80449 1.46837,8.49357 16.31447,-1.81473 0.10739,0.9453 -3.89852,0.35245 -1.75278,1.23438 -4.79778,0.53368 -0.96011,0.1068 c -3.66856,0.40807 -0.38234,-0.25195 -2.77109,1.26549 2.26588,6.30479 9.88046,15.08855 13.70506,20.82302 3.05983,4.58718 3.84195,6.25778 7.55771,10.07874 2.57771,2.64968 3.78147,8.59997 5.96746,12.04371 l 0.3224,2.83776 0.96707,8.5124 0.78303,7.62546 1.25073,1.72646 0.21489,1.89155 0.42979,3.78308 c 1.49068,2.3478 1.13947,3.91831 2.95137,6.06237 1.56877,1.85726 3.21924,2.39924 5.05608,4.54053 3.52746,-0.1016 7.93569,1.42966 8.32105,4.82167 0.24089,2.12035 -0.52285,2.16008 -1.48858,3.99647 19.41516,9.91091 25.19351,42.47137 38.64546,49.33747 7.21361,-4.85207 8.2607,-13.4925 11.42659,-22.02338 2.2219,-5.98426 8.90683,-17.71375 13.80987,-21.01091 l 1.91929,-0.21349 4.79777,-0.53368 c 2.24642,-0.24988 3.66026,-1.99674 3.40881,-4.21007 l -0.13834,-1.95082 -1.25073,-1.72648 -0.21489,-1.89154 -0.48561,-2.77531 -1.34855,-3.40303 -10.97201,-3.89077 -1.91837,0.21339 -5.7588,0.64057 c -2.83691,0.31557 -9.36888,-5.48699 -9.71084,-8.49705 -0.18207,-1.60257 0.87637,-3.67729 1.38201,-4.9428 l -0.2149,-1.89154 c -0.54516,-4.7986 -7.02123,-1.92186 -7.90007,-9.65758 l -0.42979,-3.78309 1.9193,-0.21349 c 1.83995,9.20272 10.00836,10.56402 17.84664,12.47069 3.42506,0.83382 7.55182,1.93022 11.4788,3.08022 4.78248,1.39917 8.25943,1.09179 12.59951,2.77279 l 1.91929,-0.21349 3.8386,-0.42698 2.8794,-0.32029 c 2.12392,-1.31168 9.25638,-4.06111 8.95169,-6.743 -0.39292,-3.45856 -2.83047,-1.75291 -4.60258,-6.40488 l 25.07014,-1.61816 -0.42979,-3.78309 c -0.51771,-4.55702 -2.39725,-4.86673 -5.54996,-6.08717 l -1.92021,0.21359 -5.75789,0.64048 -2.87848,0.32019 c -5.98352,-2.0539 -5.74575,-0.0929 -11.82752,-3.72823 -3.05203,-1.82519 -9.32213,-2.80225 -9.7225,-6.32645 l -0.71055,-5.8833 -4.62549,1.68777 -2.93852,0.24473 -1.75083,1.2351 -4.7987,0.53378 -0.96011,0.1068 -1.91929,0.21349 c -1.50932,-2.18234 -2.60512,-4.14299 -4.29622,-6.55804 -2.5319,-3.61387 -2.63396,-1.15997 -5.68309,-4.7634 l 0.58369,-3.16472 6.82457,0.40491 2.8539,-0.14944 3.97057,0.34759 c 1.44106,1.68038 5.70797,6.0696 8.42936,5.76689 l 1.91929,-0.21349 1.9193,-0.2135 c 4.71616,-3.17114 10.3259,-9.96703 12.84042,-14.81703 l -1.23201,-2.75597 c 2.56669,-0.89845 3.68561,-2.32542 5.543,-2.53202 1.40366,-0.15614 1.54073,1.00927 2.13419,1.67805 3.84823,-0.11143 2.41942,0.68814 4.90609,0.41154 l 2.93944,-0.24484 1.75186,-1.23428 2.87848,-0.32019 c 4.28201,-2.64376 10.42839,-4.74072 14.70958,-7.38347 l 3.77538,-0.58795 3.7944,-1.21133 c 2.05226,1.04745 2.85419,1.42626 5.12099,2.30308 l 1.9193,-0.21349 4.79777,-0.53368 1.9193,-0.21349 c 7.28147,2.82062 4.59075,2.33067 10.2297,6.77958 2.54011,2.00584 8.12646,6.21413 11.64262,6.11195 0.42886,-3.58044 1.58736,-7.83835 5.85842,-8.31344 l 1.91929,-0.21349 c 6.3419,2.17742 5.30645,-0.24041 9.38855,5.66019 l 0.21489,1.89154 0.32239,2.83777 0.27065,1.91304 -1.54529,3.97508 -1.91929,0.21349 -1.9193,0.21349 -1.89306,0.26323 -2.79721,1.21671 c -0.91032,5.95653 -11.28436,20.43368 -10.96456,23.24866 l 0.64479,5.67553 0.21489,1.89154 c 2.6355,3.80913 4.89821,4.04853 5.87328,8.92485 -1.98386,0.7653 -12.52583,8.27045 -14.64316,10.01894 -4.70809,3.88473 -10.08077,6.26857 -9.86303,13.77782 -3.02761,2.52454 -13.61292,22.92568 -15.33244,27.56632 -5.28801,14.27327 -5.30154,16.32037 -17.20982,26.08956 -4.67364,3.83382 -8.26258,5.55216 -11.95212,10.41285 -2.47928,3.26573 -0.61888,3.20925 -4.56199,5.88732 -3.20991,2.18019 -4.02326,2.51621 -5.84261,5.74268 -6.02957,10.69471 -10.07834,15.61383 -14.96681,27.85243 l 0.21489,1.89154 0.1075,0.94623 c 0.25839,2.27441 1.87108,2.60734 3.41669,4.40903 l 3.8386,-0.42699 -181.223553,26.00843"
       id="Syubrc-rkG7" />
    <path
       style="fill:none;stroke:#231f20;stroke-width:1.84717703;stroke-linecap:butt;stroke-linejoin:miter;stroke-miterlimit:22.9260006;stroke-dasharray:none;stroke-opacity:1"
       inkscape:connector-curvature="0"
       d="m 366.19725,283.8479 -2.9618,0.49284 -1.98509,-0.8186 -2.90121,0.37537 -4.03167,-1.51961 -1.91929,0.21349 -2.87848,0.32019 c -3.26197,-1.11966 -5.33867,-0.36434 -9.70398,0.12124 l -0.85957,-7.56618 c -0.80604,-7.09487 7.34751,-12.30535 7.13189,-14.20328 -0.24752,-2.17869 -0.99039,-2.76253 -3.20169,-2.51656 l -1.91837,0.21339 -1.92022,0.21359 c -4.7894,-1.85533 -6.61705,-5.00291 -10.34773,-5.5535 l 0.32229,2.83686 c 0.32798,2.88699 1.35502,3.71524 2.56407,5.46204 l 0.2149,1.89154 1.39696,12.2964 c -3.59103,-1.83355 -9.95981,-9.42847 -13.65795,-9.01711 l -2.8794,0.32029 -1.9193,0.2135 c -3.18077,2.14003 -9.89792,6.96364 -9.37358,11.579 l 0.24584,2.89706 1.25155,1.72545 0.32229,2.83687 0.21489,1.89154 c 3.06122,4.4264 4.38151,6.73224 10.56273,7.44595 1.227,3.41194 1.8843,2.46833 2.84215,6.19637 l 1.96352,1.88904 c 3.62262,-3.01996 6.57965,-5.8939 10.40021,-9.04943 2.15418,-1.77843 9.30902,-6.01102 11.97958,-7.8072 l 1.9193,-0.21349 1.91929,-0.2135 1.9193,-0.21349 c 2.49598,0.96671 4.67033,1.5898 7.43989,2.67469 1.32123,0.5186 6.67651,3.41778 6.85486,3.39795 4.38656,-0.48794 13.89388,-6.69734 15.45478,-9.38181 l -7.67718,0.85397 -4.83938,0.62044 -1.9444,-0.90529 z"
       id="ByKWS9ZBJfX" />
    <path
       style="fill:none;stroke:#231f20;stroke-width:1.84717703;stroke-linecap:butt;stroke-linejoin:miter;stroke-miterlimit:22.9260006;stroke-dasharray:none;stroke-opacity:1"
       inkscape:connector-curvature="0"
       d="m 258.93468,349.49753 0.21489,1.89155 0.53729,4.72931 0.26433,1.86573 1.23211,2.75688 1.9193,-0.21349 c 0.55919,-3.66047 5.42409,-9.12177 8.13088,-11.69463 4.93825,-4.6922 7.78202,-4.6919 12.9665,-7.89206 l 2.93945,-0.24483 1.75175,-1.2352 3.83767,-0.42688 2.85922,-0.0614 4.92638,0.15358 c 0.43981,-2.88286 0.21577,-1.57666 1.56744,-3.79663 l 3.65317,-1.57316 2.87848,-0.32019 0.9601,-0.1068 c 2.24642,-0.24987 3.66026,-1.99673 3.40871,-4.21097 l -0.64469,-5.67463 -0.37275,-2.81185 -1.23119,-2.75699 c 1.70608,-3.24341 6.72981,-8.31991 10.73819,-9.86335 l -1.68678,-4.5516 -2.87849,0.32018 c -4.79685,0.53358 -8.56183,-1.192 -11.94658,-2.50295 l -0.21489,-1.89154 -0.30191,-1.93263 0.83223,-1.95724 -0.42989,-3.784 c -0.20226,-1.78033 -3.86251,-2.44399 -6.08028,-2.19729 l -5.75789,0.64047 c 1.06826,9.40302 -4.9138,12.5922 -10.75652,16.52191 l -1.9193,0.21349 -6.71706,0.74717 -1.9058,0.15934 -3.04557,-0.55757 -1.60975,-5.69374 -3.72176,1.57064 -1.98508,-0.81861 -2.8794,0.32029 -19.19295,2.13492 c 2.09334,2.24107 3.95091,1.7972 7.14777,3.03581 l 0.2149,1.89154 0.85968,7.56708 0.21489,1.89155 c 1.25637,1.81723 2.00549,3.55149 3.72501,5.1049 1.74779,1.57979 3.88323,1.99213 4.17403,4.55186 l 0.215,1.89245 0.21489,1.89155 c 0.61358,0.88716 5.76122,7.9385 5.76578,7.97861 0.17792,1.56611 -2.25893,7.40443 -2.87151,8.93939 z"
       id="rJcZB9bBkzm" />
    <path
       style="fill:#659aa0;fill-opacity:1;fill-rule:evenodd;stroke:none;stroke-width:0.92609787"
       inkscape:connector-curvature="0"
       d="m 260.58892,355.04001 -0.26433,-1.86574 -0.1075,-0.94623 -0.2149,-1.89153 c 1.06126,-2.65937 2.02423,-4.38838 3.08641,-7.04785 l -0.2149,-1.89154 -0.21489,-1.89154 c -0.16208,-1.42663 -4.57347,-6.25579 -5.76578,-7.97862 l -0.21499,-1.89245 -0.2149,-1.89154 c -0.21293,-1.87422 -4.80134,-5.09041 -6.72496,-7.87192 l -0.21489,-1.89154 -0.96708,-8.5124 c -0.25839,-2.27441 -1.87118,-2.60826 -3.41669,-4.40903 l 10.55659,-1.17425 4.78699,-0.20847 5.87617,-0.0195 0.42979,3.78308 c 2.05215,1.04654 2.855,1.42525 5.12098,2.30308 l 1.9193,-0.2135 0.96011,-0.10679 4.85781,-0.45823 1.75186,-1.23428 2.87941,-0.32029 c 7.86637,-5.29208 5.84018,-6.56305 10.44119,-10.73958 l -0.21489,-1.89154 -0.3224,-2.83777 8.84606,-0.95997 -0.41669,6.72687 0.215,1.89245 c 0.52807,4.64819 11.05115,6.43252 16.21394,5.85824 -0.77318,5.0634 -9.88467,7.08862 -9.26712,12.52442 l 0.1074,0.94532 0.46166,4.78849 1.25073,1.72647 0.26737,2.82266 -0.67114,2.79044 -2.68272,1.43383 -1.91929,0.21349 -0.96011,0.10679 -1.9193,0.2135 c -1.94196,1.30712 -4.74121,4.35919 -6.28717,4.53116 l -10.55659,1.17425 -2.87848,0.32019 c -5.56574,3.4355 -7.48099,3.37992 -12.93764,7.91563 -4.9659,4.12757 -6.10988,8.00263 -9.05576,10.74424 l -1.40361,-2.66858 z"
       id="SyjZBq-Syz7" />
    <path
       style="fill:#4c7f3d;fill-opacity:1;fill-rule:evenodd;stroke:none;stroke-width:0.92609787"
       inkscape:connector-curvature="0"
       d="m 363.42576,285.11418 -3.8802,0.51375 c -2.44114,-0.83804 -4.55334,-1.12833 -7.03957,-2.0915 l -1.9193,0.21349 -5.75599,0.26179 -7.04316,0.15019 0.7462,-3.85944 -0.32239,-2.83776 -0.42979,-3.78309 -0.21489,-1.89154 c 2.29912,-5.75746 4.96247,-6.62881 7.45429,-11.36551 l -3.83767,0.42688 -1.92022,0.21359 c -3.55311,-1.37621 -4.66135,-2.49913 -8.38607,-3.78794 l 1.45411,2.64357 0.69721,2.75177 1.33654,6.60016 0.96708,8.5124 c -9.06831,0.80747 -9.59687,-10.4261 -17.60393,-9.53544 -3.21116,0.35719 -10.83309,7.29013 -10.5487,9.79335 l 0.46166,4.78849 1.25063,1.72557 0.21489,1.89154 0.21489,1.89154 c 2.44188,3.52973 3.18143,3.32654 5.55099,6.08798 l 2.87848,-0.32019 c 3.45679,4.02887 2.35403,4.22261 4.80567,8.08542 2.27204,-1.89401 9.34228,-7.71971 10.54869,-9.79335 4.75673,-0.92789 8.37643,-4.73956 11.8311,-7.06328 l 1.91837,-0.21339 2.8794,-0.32029 c 2.65346,0.91134 4.72841,1.22794 7.71732,2.33275 1.34207,0.49596 7.53384,3.6335 7.53754,3.63309 l 2.87848,-0.32019 c 3.5624,-2.19908 6.19229,-2.7224 9.05919,-5.79677 l -5.75788,0.64048 -5.7995,0.72724 -1.94348,-0.90539 z"
       id="HyhbH5-H1fm" />
    <path
       style="fill:#4c7f3d;fill-opacity:1;fill-rule:evenodd;stroke:none;stroke-width:0.92609787"
       inkscape:connector-curvature="0"
       d="m 368.14114,284.75306 4.83949,-0.61953 7.67718,-0.85396 c -1.56101,2.68356 -11.06741,8.89286 -15.45397,9.3808 -0.17835,0.0198 -5.53362,-2.87936 -6.85568,-3.39693 -2.76874,-1.08591 -4.94308,-1.709 -7.43897,-2.6748 l -1.92021,0.21359 -1.9193,0.21349 -1.91837,0.21339 c -2.67055,1.79619 -9.82644,6.02797 -11.97969,7.8063 -3.82055,3.15553 -6.77759,6.02946 -10.40021,9.04942 l -1.96342,-1.88812 c -0.95795,-3.72895 -1.61607,-2.78433 -2.84224,-6.19729 -6.18123,-0.7137 -7.50244,-3.01943 -10.56366,-7.44584 l -0.21489,-1.89154 -0.32229,-2.83686 -1.25062,-1.72556 -0.24584,-2.89706 c -0.52434,-4.61536 6.19199,-9.43797 9.37369,-11.57809 l 1.91929,-0.21349 2.87849,-0.32019 c 3.69905,-0.41146 10.06681,7.18264 13.65785,9.01619 l -1.39697,-12.2964 -0.21489,-1.89154 c -1.20906,-1.74679 -2.2361,-2.57505 -2.56398,-5.46113 l -0.32239,-2.83777 c 3.7316,0.55049 5.55833,3.69817 10.34865,5.55339 l 1.92022,-0.21359 1.91837,-0.21339 c 2.21131,-0.24597 2.95326,0.33798 3.20088,2.51758 0.21552,1.89702 -7.93804,7.10749 -7.13201,14.20238 l 0.85958,7.56617 c 4.36624,-0.48568 6.44202,-1.2409 9.70397,-0.12124 l 2.87941,-0.32029 1.91929,-0.21349 4.03074,1.51971 2.90123,-0.37537 1.98518,0.81951 2.96262,-0.49385 1.94348,0.90539 z"
       id="H1TZrcZH1zm" />
    <path
       style="fill:#63989c;fill-opacity:1;fill-rule:evenodd;stroke:none;stroke-width:0.92609787"
       inkscape:connector-curvature="0"
       d="m 365.36953,286.01916 5.7995,-0.72724 5.75788,-0.64047 c -2.86689,3.07436 -5.49771,3.59777 -9.05909,5.79767 l -2.8794,0.32029 c -0.003,3.1e-4 -6.19557,-3.13803 -7.53672,-3.63411 -2.9889,-1.10481 -5.06478,-1.42129 -7.71721,-2.33183 l -2.8794,0.32029 -1.9193,0.21349 c -3.45385,2.32271 -7.07354,6.13437 -11.83027,7.06227 -1.20631,2.07455 -8.27758,7.89943 -10.54963,9.79345 -2.45153,-3.8619 -1.34888,-4.05655 -4.80566,-8.08541 l -2.87848,0.32019 c -2.36863,-2.76155 -3.10911,-2.55825 -5.54996,-6.08718 l -0.21489,-1.89154 -0.2149,-1.89154 -1.25154,-1.72546 -0.46074,-4.7886 c -0.28448,-2.50413 7.33653,-9.43697 10.5486,-9.79426 8.00615,-0.89056 8.53481,10.34392 17.60394,9.53543 l -0.96708,-8.5124 -1.33655,-6.60016 -0.69803,-2.75075 -1.45318,-2.64367 c 3.7238,1.28891 4.83295,2.41173 8.38514,3.78804 l 1.92023,-0.21359 3.83858,-0.42699 c -2.49192,4.7358 -5.15619,5.60726 -7.45531,11.36471 l 0.21489,1.89154 0.42979,3.78308 0.32239,2.83778 -0.74528,3.85932 7.04316,-0.15019 5.75518,-0.26077 1.91929,-0.21349 c 2.48623,0.96317 4.59926,1.25246 7.04039,2.09049 l 3.8802,-0.51374 1.94348,0.90538 z"
       id="ByCWB5WSJzQ" />
    <path
       style="fill:#99cd29;fill-opacity:1;fill-rule:evenodd;stroke:none;stroke-width:0.92609787"
       inkscape:connector-curvature="0"
       d="m 627.64449,256.1253 c -2.92005,7.80382 -3.84596,16.12708 -6.41391,23.38126 l 0.32239,2.83776 1.61176,14.18703 0.21489,1.89154 c -1.2559,3.14533 -1.02997,5.09288 -2.01973,7.88737 l 0.32239,2.83777 c -1.30486,3.68618 -3.81697,25.32722 -6.80265,25.65933 -1.55983,0.1735 -2.53118,-2.33915 -3.30929,-3.46371 l -0.32239,-2.83776 -1.25063,-1.72557 -0.24574,-2.89614 -1.25073,-1.72648 -0.24666,-2.89604 -1.25063,-1.72556 -0.46073,-4.78859 -1.25166,-1.72638 -0.56721,-5.73402 -0.21489,-1.89154 c 0.98883,-2.79439 0.7629,-4.74193 2.0189,-7.88635 l -0.215,-1.89245 -0.42978,-3.78309 -0.42979,-3.78308 c -1.59209,-2.5073 -1.80797,-4.45689 -3.73816,-7.2469 l -0.21489,-1.89154 -0.42979,-3.78308 -0.215,-1.89246 c 4.12786,-10.33455 6.77866,-22.62518 10.84824,-32.81387 l -0.21489,-1.89154 -0.2149,-1.89153 c 2.38655,-1.98984 9.32418,-12.02215 8.83733,-16.30752 -0.27134,-2.38835 -7.25744,-5.04706 -9.46752,-5.56463 -3.56544,-0.8339 -9.6658,-0.32518 -10.05572,-3.7573 l -0.1075,-0.94623 -0.21489,-1.89154 1.54528,-3.97509 -0.27064,-1.91304 -0.21489,-1.89154 c -0.17596,-1.54878 -0.89717,-2.77383 -2.24169,-2.62428 -5.26628,0.5858 -9.25171,4.86001 -15.88468,5.59782 l -1.74543,-5.5208 41.31188,-5.15668"
       id="BkkGH5-HJM7" />
    <path
       style="fill:none;stroke:#231f20;stroke-width:0.92358851;stroke-linecap:butt;stroke-linejoin:miter;stroke-miterlimit:22.9260006;stroke-dasharray:none;stroke-opacity:1"
       inkscape:connector-curvature="0"
       d="m 71.281907,475.06518 c 2.88495,-0.3209 4.96445,-2.86368 4.64475,-5.67775 -0.3198,-2.81498 -2.91785,-4.83652 -5.80279,-4.51561 -2.88495,0.3209 -4.96456,2.86276 -4.64475,5.67774 0.3197,2.81407 2.91785,4.83653 5.80279,4.51562 z"
       id="SyeGrc-Skzm" />
    <path
       style="fill:none;stroke:#231f20;stroke-width:0.92358851;stroke-linecap:butt;stroke-linejoin:miter;stroke-miterlimit:22.9260006;stroke-dasharray:none;stroke-opacity:1"
       inkscape:connector-curvature="0"
       d="m 179.39013,460.43047 c 2.88494,-0.32091 4.96445,-2.86368 4.64475,-5.67775 -0.31981,-2.81498 -2.91785,-4.83652 -5.8028,-4.51561 -2.88494,0.3209 -4.96455,2.86276 -4.64474,5.67774 0.3197,2.81407 2.91784,4.83653 5.80279,4.51562 z"
       id="SJWMrcZBkz7" />
    <path
       style="fill:none;stroke:#231f20;stroke-width:0.92358851;stroke-linecap:butt;stroke-linejoin:miter;stroke-miterlimit:22.9260006;stroke-dasharray:none;stroke-opacity:1"
       inkscape:connector-curvature="0"
       d="m 212.56259,445.86832 c 2.88494,-0.3209 4.96444,-2.86368 4.64474,-5.67774 -0.3198,-2.81499 -2.91784,-4.83653 -5.80279,-4.51562 -2.88494,0.3209 -4.96455,2.86276 -4.64475,5.67774 0.3197,2.81407 2.91785,4.83653 5.8028,4.51562 z"
       id="BkfMHqWSkGQ" />
    <path
       style="fill:none;stroke:#231f20;stroke-width:0.92358851;stroke-linecap:butt;stroke-linejoin:miter;stroke-miterlimit:22.9260006;stroke-dasharray:none;stroke-opacity:1"
       inkscape:connector-curvature="0"
       d="m 263.48672,428.46176 c 2.88495,-0.32091 4.96445,-2.86368 4.64475,-5.67775 -0.31981,-2.81498 -2.91785,-4.83652 -5.8028,-4.51562 -2.88494,0.32091 -4.96455,2.86277 -4.64474,5.67775 0.3197,2.81406 2.91784,4.83652 5.80279,4.51562 z"
       id="BJ7MH5WByGX" />
    <path
       style="fill:none;stroke:#231f20;stroke-width:0.92358851;stroke-linecap:butt;stroke-linejoin:miter;stroke-miterlimit:22.9260006;stroke-dasharray:none;stroke-opacity:1"
       inkscape:connector-curvature="0"
       d="m 308.81139,423.85494 c 2.88494,-0.32091 4.96445,-2.86368 4.64475,-5.67775 -0.31981,-2.81498 -2.91785,-4.83652 -5.8028,-4.51561 -2.88494,0.3209 -4.96455,2.86276 -4.64475,5.67774 0.3197,2.81407 2.91785,4.83652 5.8028,4.51562 z"
       id="HyEGH5ZSyM7" />
    <path
       style="fill:none;stroke:#231f20;stroke-width:0.92358851;stroke-linecap:butt;stroke-linejoin:miter;stroke-miterlimit:22.9260006;stroke-dasharray:none;stroke-opacity:1"
       inkscape:connector-curvature="0"
       d="m 282.79559,384.99932 c 2.88494,-0.32091 4.96445,-2.86368 4.64475,-5.67775 -0.31981,-2.81498 -2.91785,-4.83652 -5.8028,-4.51562 -2.88494,0.32091 -4.96455,2.86277 -4.64475,5.67775 0.3197,2.81406 2.91785,4.83652 5.8028,4.51562 z"
       id="HkHzHqZBkzQ" />
    <path
       style="fill:none;stroke:#231f20;stroke-width:0.92358851;stroke-linecap:butt;stroke-linejoin:miter;stroke-miterlimit:22.9260006;stroke-dasharray:none;stroke-opacity:1"
       inkscape:connector-curvature="0"
       d="m 328.66079,389.03018 c 2.88494,-0.3209 4.96445,-2.86367 4.64475,-5.67774 -0.31981,-2.81498 -2.91785,-4.83653 -5.8028,-4.51562 -2.88494,0.32091 -4.96455,2.86276 -4.64474,5.67775 0.3197,2.81406 2.91784,4.83652 5.80279,4.51561 z"
       id="rkIzr5bH1fm" />
    <path
       style="fill:none;stroke:#231f20;stroke-width:0.92358851;stroke-linecap:butt;stroke-linejoin:miter;stroke-miterlimit:22.9260006;stroke-dasharray:none;stroke-opacity:1"
       inkscape:connector-curvature="0"
       d="m 360.06196,393.80025 c 2.88495,-0.3209 4.96445,-2.86368 4.64475,-5.67774 -0.31981,-2.81498 -2.91785,-4.83653 -5.8028,-4.51562 -2.88494,0.3209 -4.96547,2.86287 -4.64567,5.67785 0.3197,2.81406 2.91877,4.83642 5.80372,4.51551 z"
       id="SywfrcZHJz7" />
    <path
       style="fill:none;stroke:#231f20;stroke-width:0.92358851;stroke-linecap:butt;stroke-linejoin:miter;stroke-miterlimit:22.9260006;stroke-dasharray:none;stroke-opacity:1"
       inkscape:connector-curvature="0"
       d="m 377.05546,407.56604 c 2.88494,-0.32091 4.96445,-2.86368 4.64475,-5.67775 -0.31981,-2.81498 -2.91785,-4.83652 -5.8028,-4.51562 -2.88494,0.32091 -4.96455,2.86277 -4.64474,5.67775 0.3197,2.81407 2.91784,4.83652 5.80279,4.51562 z"
       id="SkdzH5ZB1Mm" />
    <path
       style="fill:none;stroke:#231f20;stroke-width:0.92358851;stroke-linecap:butt;stroke-linejoin:miter;stroke-miterlimit:22.9260006;stroke-dasharray:none;stroke-opacity:1"
       inkscape:connector-curvature="0"
       d="m 353.62948,445.83284 c 2.88494,-0.3209 4.96537,-2.86378 4.64567,-5.67785 -0.3198,-2.81498 -2.91877,-4.83642 -5.80372,-4.51551 -2.88495,0.3209 -4.96455,2.86276 -4.64475,5.67774 0.3197,2.81407 2.91785,4.83653 5.8028,4.51562 z"
       id="BJtMS9-Bkzm" />
    <path
       style="fill:none;stroke:#231f20;stroke-width:0.92358851;stroke-linecap:butt;stroke-linejoin:miter;stroke-miterlimit:22.9260006;stroke-dasharray:none;stroke-opacity:1"
       inkscape:connector-curvature="0"
       d="m 449.90839,455.12824 c 2.88494,-0.32091 4.96444,-2.86368 4.64474,-5.67775 -0.3198,-2.81498 -2.91784,-4.83652 -5.80279,-4.51562 -2.88494,0.32091 -4.96455,2.86276 -4.64475,5.67775 0.3197,2.81406 2.91785,4.83652 5.8028,4.51562 z"
       id="HJcfrqbHkGm" />
    <path
       style="fill:none;stroke:#231f20;stroke-width:0.92358851;stroke-linecap:butt;stroke-linejoin:miter;stroke-miterlimit:22.9260006;stroke-dasharray:none;stroke-opacity:1"
       inkscape:connector-curvature="0"
       d="m 457.97372,491.19688 c 2.88495,-0.32091 4.96445,-2.86368 4.64475,-5.67775 -0.3198,-2.81498 -2.91785,-4.83652 -5.80279,-4.51562 -2.88495,0.32091 -4.96456,2.86277 -4.64475,5.67775 0.3197,2.81407 2.91785,4.83652 5.80279,4.51562 z"
       id="B1jMrcZryfm" />
    <path
       style="fill:none;stroke:#231f20;stroke-width:0.92358851;stroke-linecap:butt;stroke-linejoin:miter;stroke-miterlimit:22.9260006;stroke-dasharray:none;stroke-opacity:1"
       inkscape:connector-curvature="0"
       d="m 413.79006,525.24928 c 2.88495,-0.3209 4.96445,-2.86368 4.64475,-5.67774 -0.3198,-2.81499 -2.91785,-4.83653 -5.80279,-4.51562 -2.88495,0.3209 -4.96456,2.86276 -4.64475,5.67774 0.3197,2.81407 2.91785,4.83653 5.80279,4.51562 z"
       id="ByhfS5bSyGX" />
    <path
       style="fill:none;stroke:#231f20;stroke-width:0.92358851;stroke-linecap:butt;stroke-linejoin:miter;stroke-miterlimit:22.9260006;stroke-dasharray:none;stroke-opacity:1"
       inkscape:connector-curvature="0"
       d="m 393.07388,564.08448 c 2.88494,-0.3209 4.96444,-2.86368 4.64474,-5.67774 -0.3198,-2.81499 -2.91784,-4.83653 -5.80279,-4.51562 -2.88494,0.3209 -4.96548,2.86286 -4.64567,5.67784 0.3197,2.81407 2.91877,4.83643 5.80372,4.51552 z"
       id="BJ6zBqZByf7" />
    <path
       style="fill:none;stroke:#231f20;stroke-width:0.92358851;stroke-linecap:butt;stroke-linejoin:miter;stroke-miterlimit:22.9260006;stroke-dasharray:none;stroke-opacity:1"
       inkscape:connector-curvature="0"
       d="m 334.34726,567.13779 c 2.88495,-0.32091 4.96445,-2.86368 4.64475,-5.67775 -0.31981,-2.81498 -2.91785,-4.83652 -5.8028,-4.51562 -2.88494,0.32091 -4.96455,2.86277 -4.64474,5.67775 0.3197,2.81407 2.91784,4.83652 5.80279,4.51562 z"
       id="Bk0GSqbS1fX" />
    <path
       style="fill:none;stroke:#231f20;stroke-width:0.92358851;stroke-linecap:butt;stroke-linejoin:miter;stroke-miterlimit:22.9260006;stroke-dasharray:none;stroke-opacity:1"
       inkscape:connector-curvature="0"
       d="m 385.73636,480.09697 c 2.88494,-0.3209 4.96444,-2.86368 4.64474,-5.67774 -0.3198,-2.81498 -2.91784,-4.83653 -5.80279,-4.51562 -2.88494,0.3209 -4.96455,2.86276 -4.64475,5.67774 0.3197,2.81407 2.91785,4.83653 5.8028,4.51562 z"
       id="ByJQHcWSJfm" />
    <path
       style="fill:#ffffff;fill-opacity:1;fill-rule:evenodd;stroke:none;stroke-width:0.92609787"
       inkscape:connector-curvature="0"
       d="m 396.78339,607.1094 4.78022,-0.53173 0.0617,-3.22112 -5.62574,0.62578 z"
       id="rkgmrqZrJzm" />
    <path
       style="fill:none;stroke:#231f20;stroke-width:0.19949514;stroke-linecap:butt;stroke-linejoin:miter;stroke-miterlimit:22.9260006;stroke-dasharray:none;stroke-opacity:1"
       inkscape:connector-curvature="0"
       d="m 396.78339,607.1094 4.78022,-0.53173 0.0617,-3.22112 -5.62574,0.62578 z"
       id="HJbQB5bHyz7" />
    <path
       style="fill:#ed1c24;fill-opacity:1;fill-rule:evenodd;stroke:none;stroke-width:0.92609787"
       inkscape:connector-curvature="0"
       d="m 396.0028,604.05615 5.59432,-0.62228 0.1347,-3.22924 -6.58493,0.73247 z"
       id="HyfmrcbHJGQ" />
    <path
       style="fill:none;stroke:#231f20;stroke-width:0.19949514;stroke-linecap:butt;stroke-linejoin:miter;stroke-miterlimit:22.9260006;stroke-dasharray:none;stroke-opacity:1"
       inkscape:connector-curvature="0"
       d="m 396.0028,604.05615 5.59432,-0.62228 0.1347,-3.22924 -6.58493,0.73247 z"
       id="BJmmr9ZBkGQ" />
    <path
       style="fill:#ffffff;fill-opacity:1;fill-rule:evenodd;stroke:none;stroke-width:0.92609787"
       inkscape:connector-curvature="0"
       d="m 395.04044,601.02323 6.63853,-0.73844 0.22709,-3.23951 -7.81393,0.86918 z"
       id="HJVQrcbB1zm" />
    <path
       style="fill:none;stroke:#231f20;stroke-width:0.19949514;stroke-linecap:butt;stroke-linejoin:miter;stroke-miterlimit:22.9260006;stroke-dasharray:none;stroke-opacity:1"
       inkscape:connector-curvature="0"
       d="m 395.04044,601.02323 6.63853,-0.73844 0.22709,-3.23951 -7.81393,0.86918 z"
       id="HySXScZSyf7" />
    <path
       style="fill:#ed1c24;fill-opacity:1;fill-rule:evenodd;stroke:none;stroke-width:0.92609787"
       inkscape:connector-curvature="0"
       d="m 394.17255,597.97974 7.75758,-0.86291 0.32597,-3.25051 -9.13074,1.01565 z"
       id="B18XH9WryzX" />
    <path
       style="fill:none;stroke:#231f20;stroke-width:0.19949514;stroke-linecap:butt;stroke-linejoin:miter;stroke-miterlimit:22.9260006;stroke-dasharray:none;stroke-opacity:1"
       inkscape:connector-curvature="0"
       d="m 394.17255,597.97974 7.75758,-0.86291 0.32597,-3.25051 -9.13074,1.01565 z"
       id="rywmr9brJMm" />
    <path
       style="fill:#fff200;fill-opacity:1;fill-rule:evenodd;stroke:#231f20;stroke-width:0.19949514;stroke-linecap:butt;stroke-linejoin:miter;stroke-miterlimit:22.9260006;stroke-dasharray:none;stroke-opacity:1"
       inkscape:connector-curvature="0"
       d="m 397.38373,610.45267 4.30248,-0.47858 -0.36548,-3.21699 -4.30247,0.47858 z"
       id="Bk_XBcWHJMQ" />
    <path
       style="fill:none;stroke:#00a650;stroke-width:1.84717703;stroke-linecap:butt;stroke-linejoin:miter;stroke-miterlimit:22.9260006;stroke-dasharray:none;stroke-opacity:1"
       inkscape:connector-curvature="0"
       d="m 340.59135,369.87288 -3.76785,5.63744"
       id="H1tQHcZByMQ" />
    <path
       style="fill:none;stroke:#231f20;stroke-width:0.92358851;stroke-linecap:butt;stroke-linejoin:miter;stroke-miterlimit:22.9260006;stroke-dasharray:none;stroke-opacity:1"
       inkscape:connector-curvature="0"
       d="m 258.33078,600.38219 c 2.88495,-0.3209 4.96445,-2.86368 4.64475,-5.67774 -0.3198,-2.81498 -2.91785,-4.83653 -5.80279,-4.51562 -2.88495,0.3209 -4.96455,2.86276 -4.64475,5.67774 0.3197,2.81407 2.91785,4.83653 5.80279,4.51562 z"
       id="HJsXB5ZB1GQ" />
    <path
       style="fill:none;stroke:#231f20;stroke-width:0.92358851;stroke-linecap:butt;stroke-linejoin:miter;stroke-miterlimit:22.9260006;stroke-dasharray:none;stroke-opacity:1"
       inkscape:connector-curvature="0"
       d="m 488.81906,396.00389 c 2.88494,-0.3209 4.96444,-2.86368 4.64474,-5.67774 -0.3198,-2.81498 -2.91784,-4.83653 -5.80279,-4.51562 -2.88494,0.3209 -4.96548,2.86287 -4.64567,5.67785 0.3197,2.81406 2.91877,4.83642 5.80372,4.51551 z"
       id="Hyp7r5-HyzX" />
    <path
       style="fill:#66a1ab;fill-opacity:1;fill-rule:evenodd;stroke:none;stroke-width:0.92609787"
       inkscape:connector-curvature="0"
       d="m 611.37088,346.69044 c -0.17585,-1.54787 0.25249,-2.9008 1.59701,-3.05035 2.21223,-0.24608 2.1725,2.43536 2.45659,4.51582 -1.87941,0.054 -3.83363,0.47075 -4.0536,-1.46547"
       id="ryRQBcZr1G7" />
    <path
       style="fill:none;stroke:#231f20;stroke-width:0.92358851;stroke-linecap:butt;stroke-linejoin:miter;stroke-miterlimit:22.9260006;stroke-dasharray:none;stroke-opacity:1"
       inkscape:connector-curvature="0"
       d="m 124.08246,447.01251 c 2.88495,-0.3209 4.96445,-2.86368 4.64475,-5.67774 -0.3198,-2.81498 -2.91785,-4.83653 -5.80279,-4.51562 -2.88495,0.3209 -4.96456,2.86276 -4.64475,5.67774 0.3197,2.81407 2.91785,4.83653 5.80279,4.51562 z"
       id="SkkNBcbrkzm" />
    <path
       style="fill:none;stroke:#231f20;stroke-width:0.92358851;stroke-linecap:butt;stroke-linejoin:miter;stroke-miterlimit:22.9260006;stroke-dasharray:none;stroke-opacity:1"
       inkscape:connector-curvature="0"
       d="m 568.1387,502.42676 c 2.88494,-0.32091 4.96444,-2.86368 4.64474,-5.67775 -0.3198,-2.81498 -2.91784,-4.83652 -5.80279,-4.51562 -2.88495,0.32091 -4.96455,2.86277 -4.64475,5.67775 0.3197,2.81407 2.91785,4.83652 5.8028,4.51562 z"
       id="SklVBq-SyG7" />
    <path
       style="fill:#99cd29;fill-opacity:1;fill-rule:evenodd;stroke:none;stroke-width:0.92609787"
       inkscape:connector-curvature="0"
       d="m 598.90546,411.41486 -2.85724,0.19413 -1.9193,0.21349 c -1.28507,-0.49677 -3.98627,-0.87295 -4.16088,-2.40988 -0.77745,-6.84328 5.05445,-5.48977 8.19951,-13.36385 l -0.21489,-1.89154 -1.18207,-10.40485 c -0.24752,-2.17869 0.34581,-2.91118 2.55619,-3.15705 l 2.8794,-0.32028 1.9193,-0.2135 c 6.83802,2.64841 3.71581,4.19205 8.97575,8.32774 3.30376,4.75759 9.43564,6.2642 10.23205,6.77563 l 0.35324,3.84237 1.25164,1.72638 0.26737,2.82265 -0.58276,2.95877 -6.71707,0.74717 c -3.81272,0.4241 -2.47549,4.10625 -6.2882,4.53035 l -2.87849,0.32019 -3.81725,0.30184 -6.01628,-0.99976 z"
       id="r1bEH9-SJGm" />
    <path
       style="fill:none;stroke:#231f20;stroke-width:1.84717703;stroke-linecap:butt;stroke-linejoin:miter;stroke-miterlimit:22.9260006;stroke-dasharray:none;stroke-opacity:1"
       inkscape:connector-curvature="0"
       d="m 598.90546,411.41486 -2.85724,0.19413 -1.9193,0.21349 c -1.28507,-0.49677 -3.98627,-0.87295 -4.16088,-2.40988 -0.77745,-6.84328 5.05445,-5.48977 8.19951,-13.36385 l -0.21489,-1.89154 -1.18207,-10.40485 c -0.24752,-2.17869 0.34581,-2.91118 2.55619,-3.15705 l 2.8794,-0.32028 1.9193,-0.2135 c 6.83802,2.64841 3.71581,4.19205 8.97575,8.32774 3.30376,4.75759 9.43564,6.2642 10.23205,6.77563 l 0.35324,3.84237 1.25164,1.72638 0.26737,2.82265 -0.58276,2.95877 -6.71707,0.74717 c -3.81272,0.4241 -2.47549,4.10625 -6.2882,4.53035 l -2.87849,0.32019 -3.81725,0.30184 -6.01628,-0.99976 z"
       id="BkG4S5ZHkf7" />
    <path
       style="fill:none;stroke:#231f20;stroke-width:1.84717703;stroke-linecap:butt;stroke-linejoin:miter;stroke-miterlimit:22.9260006;stroke-dasharray:none;stroke-opacity:1"
       inkscape:connector-curvature="0"
       d="m 512.60815,204.42964 c 2.33328,-0.25954 8.27649,4.41308 8.53768,6.7121 l 0.21489,1.89155 0.27817,2.82699 -1.33867,4.95368 0.32239,2.83776 0.21489,1.89155 c 5.20396,7.52232 11.2288,5.56627 19.41574,8.37571 l 2.9202,-0.40603 1.98601,0.81851 4.79777,-0.53368 c -1.06126,2.01688 -4.30883,7.95091 -5.53505,9.29012 l -0.74526,3.85933 0.32239,2.83777 0.32239,2.83776 0.2149,1.89155 c -2.77496,6.94765 -5.20977,8.30683 -7.98462,15.25539 l 0.2149,1.89155 0.21489,1.89153 c 2.78799,4.03126 3.84033,5.32932 6.83246,8.81815 3.29046,-0.0955 3.59513,0.32935 6.28836,1.28612 l -1.2678,8.69084 0.62523,4.7703 -0.83316,1.95735 0.42979,3.78308 0.14935,2.81363 -0.35635,3.91392 c -2.48959,2.26069 -2.53091,4.45859 -5.96571,7.36904 -2.36948,2.00824 -4.66208,4.52025 -7.03157,6.52849 -5.10341,4.32564 -8.70065,8.96099 -7.66325,18.09235 l 0.3988,3.99608 -3.91498,-0.73133 -1.91929,0.21349 -2.87848,0.32019 c -4.27246,2.63716 -10.23247,4.09307 -13.85788,6.33055 l -2.79156,0.68992 -6.69742,1.32377 -4.7987,0.53378 c -0.70964,-1.79035 -10.03578,-16.32393 -11.4009,-17.1958 -2.26602,-1.44646 -18.08708,-6.34221 -20.39725,-6.08524 l -1.9193,0.21349 c -1.23964,0.83391 -6.17363,4.51761 -7.24647,4.63695 l -16.3154,1.81483 -2.87755,0.32009 c -3.37276,2.08107 -27.61619,15.52273 -30.27197,15.81814 -1.03774,0.11543 -3.03547,-2.53598 -6.08121,-2.19719 l -1.91837,0.21339 c -5.15729,3.18421 -9.58571,5.62641 -14.85117,8.99527 -6.01736,3.85037 -8.26598,6.38703 -13.07151,10.39429 -1.51994,-3.8326 -0.65855,-1.9585 -4.26847,-3.35701 l -1.9193,0.21349 -14.39518,1.60124 c -2.24642,0.24988 -4.01682,-1.14185 -4.26838,-3.3561 l -0.215,-1.89245 c 1.22036,-3.05462 0.77891,-3.90923 2.97302,-6.11858 l 0.64372,-4.81914 -0.2149,-1.89154 c -0.20795,-1.83047 -1.65534,-2.93228 -2.56408,-5.46206 -3.10237,-0.35739 -5.9545,-2.21035 -8.00039,-1.98278 -3.94301,0.4386 -12.04754,9.96007 -13.42718,10.11353 -1.06822,0.11883 -3.09056,-2.81509 -4.6007,-4.02439 -2.72347,-2.17836 -3.06788,-1.97297 -5.7528,-3.68022 -6.38675,-4.06296 -8.2314,-1.8417 -14.2899,-3.92142 l -3.83859,0.42698 -6.718,0.74727 -2.87848,0.32019 c -8.68214,5.35974 -7.73987,4.74168 -13.88866,12.33601 -1.91199,2.36167 -3.56184,4.69973 -5.54305,6.83924 -2.34536,2.53357 -5.72346,2.9038 -8.91297,5.04941 l -1.92022,0.21359 -1.91929,0.21349 c -2.31932,4.41013 -4.4388,4.89604 -6.60261,10.31259 l 0.2149,1.89154 0.30283,1.93254 -0.83212,1.95816 0.64468,5.67463 c 0.33482,2.94715 -3.50548,7.77385 -7.01147,8.42692 l 0.18598,-8.62589 0.10724,-2.84493 -0.44354,-7.93185 -7.19925,3.02642 -0.46393,5.76748 c -2.6967,-1.045 -4.44932,-1.99193 -7.22484,-3.19525 l -5.64931,2.91401 9.58054,7.44074 c -1.01175,2.68339 -5.69839,-2.18807 -11.10064,-5.55836 l -1.91929,0.21349 -1.91929,0.21349 c -1.57093,0.17474 -2.81509,0.88638 -2.66451,2.21183 0.49099,4.32183 4.19194,2.68335 5.12805,10.92318 l -9.59648,1.06746 c -1.39687,-3.88598 -5.3586,-11.15693 -7.47713,-14.49277 l -3.8386,0.42698 0.2149,1.89154 -2.87941,0.32029 c -3.48559,0.38772 -3.07971,1.20937 -6.3439,2.35156 1.44856,4.02793 4.83161,7.40773 5.53026,10.58397 0.0992,0.45329 -0.75439,0.57501 -1.68096,0.86177 l -6.03138,-11.13194 -5.43848,2.71886 c 0.7723,5.65305 3.243,6.80904 4.27637,11.9761 l -1.92021,0.2136 c -1.36138,-2.94744 -2.79292,-9.03301 -7.89915,-9.65768 -1.4881,-2.9675 1.16674,-0.82488 -3.2018,-2.51749 l -1.91929,0.2135 -0.95919,0.10669 -3.82407,0.37364 -3.01357,-0.60543 -4.67813,1.5127 0.85968,7.56709 c 3.46303,-1.21231 2.50609,-1.86005 6.71513,-2.32916 l -4.68834,3.06189 -1.91929,0.21349 -1.89317,0.26232 -2.79813,1.21681 c 1.82823,4.61064 9.09801,7.1224 11.01235,12.00501 l -2.68251,1.43565 -1.91928,0.21349 c -2.97921,0.33139 -11.51003,-8.21476 -14.72454,-9.85572 -0.75866,-5.55764 -4.86533,-11.2958 -6.73285,-16.49101 l -4.79778,0.53368 0.61267,5.8868 -3.91405,-0.73143 -2.8794,0.32029 -0.95919,0.1067 -1.91929,0.21349 c -1.72297,1.15908 -7.28622,4.30352 -7.03332,6.52961 0.24607,2.16593 0.45017,1.06319 1.38989,3.67629 -3.43788,1.20305 -10.01173,5.97011 -9.5895,9.68665 l 0.67381,1.80449 1.46837,8.49357 16.31447,-1.81473 0.10739,0.9453 -3.89852,0.35245 -1.75278,1.23438 -4.79778,0.53368 -0.96011,0.1068 c -3.66856,0.40807 -0.38234,-0.25195 -2.77109,1.26549 2.26588,6.30479 9.88046,15.08855 13.70506,20.82302 3.05983,4.58718 3.84195,6.25778 7.55771,10.07874 2.57771,2.64968 3.78147,8.59997 5.96746,12.04371 l 0.3224,2.83776 0.96707,8.5124 0.78303,7.62546 1.25073,1.72646 0.21489,1.89155 0.42979,3.78308 c 1.49068,2.3478 1.13947,3.91831 2.95137,6.06237 1.56877,1.85726 3.21924,2.39924 5.05608,4.54053 3.52746,-0.1016 7.93569,1.42966 8.32105,4.82167 0.24089,2.12035 -0.52285,2.16008 -1.48858,3.99647 19.41516,9.91091 25.19351,42.47137 38.64546,49.33747 7.21361,-4.85207 8.2607,-13.4925 11.42659,-22.02338 2.2219,-5.98426 8.90683,-17.71375 13.80987,-21.01091 l 1.91929,-0.21349 4.79777,-0.53368 c 2.24642,-0.24988 3.66026,-1.99674 3.40881,-4.21007 l -0.13834,-1.95082 -1.25073,-1.72648 -0.21489,-1.89154 -0.48561,-2.77531 -1.34855,-3.40303 -10.97201,-3.89077 -1.91837,0.21339 -5.7588,0.64057 c -2.83691,0.31557 -9.36888,-5.48699 -9.71084,-8.49705 -0.18207,-1.60257 0.87637,-3.67729 1.38201,-4.9428 l -0.2149,-1.89154 c -0.54516,-4.7986 -7.02123,-1.92186 -7.90007,-9.65758 l -0.42979,-3.78309 1.9193,-0.21349 c 1.83995,9.20272 10.00836,10.56402 17.84664,12.47069 3.42506,0.83382 7.55182,1.93022 11.4788,3.08022 4.78248,1.39917 8.25943,1.09179 12.59951,2.77279 l 1.91929,-0.21349 3.8386,-0.42698 2.8794,-0.32029 c 2.12392,-1.31168 9.25638,-4.06111 8.95169,-6.743 -0.39292,-3.45856 -2.83047,-1.75291 -4.60258,-6.40488 l 25.07014,-1.61816 -0.42979,-3.78309 c -0.51771,-4.55702 -2.39725,-4.86673 -5.54996,-6.08717 l -1.92021,0.21359 -5.75789,0.64048 -2.87848,0.32019 c -5.98352,-2.0539 -5.74575,-0.0929 -11.82752,-3.72823 -3.05203,-1.82519 -9.32213,-2.80225 -9.7225,-6.32645 l -0.71055,-5.8833 -4.62549,1.68777 -2.93852,0.24473 -1.75083,1.2351 -4.7987,0.53378 -0.96011,0.1068 -1.91929,0.21349 c -1.50932,-2.18234 -2.60512,-4.14299 -4.29622,-6.55804 -2.5319,-3.61387 -2.63396,-1.15997 -5.68309,-4.7634 l 0.58369,-3.16472 6.82457,0.40491 2.8539,-0.14944 3.97057,0.34759 c 1.44106,1.68038 5.70797,6.0696 8.42936,5.76689 l 1.91929,-0.21349 1.9193,-0.2135 c 4.71616,-3.17114 10.3259,-9.96703 12.84042,-14.81703 l -1.23201,-2.75597 c 2.56669,-0.89845 3.68561,-2.32542 5.543,-2.53202 1.40366,-0.15614 1.54073,1.00927 2.13419,1.67805 3.84823,-0.11143 2.41942,0.68814 4.90609,0.41154 l 2.93944,-0.24484 1.75186,-1.23428 2.87848,-0.32019 c 4.28201,-2.64376 10.42839,-4.74072 14.70958,-7.38347 l 3.77538,-0.58795 3.7944,-1.21133 c 2.05226,1.04745 2.85419,1.42626 5.12099,2.30308 l 1.9193,-0.21349 4.79777,-0.53368 1.9193,-0.21349 c 7.28147,2.82062 4.59075,2.33067 10.2297,6.77958 2.54011,2.00584 8.12646,6.21413 11.64262,6.11195 0.42886,-3.58044 1.58736,-7.83835 5.85842,-8.31344 l 1.91929,-0.21349 c 6.3419,2.17742 5.30645,-0.24041 9.38855,5.66019 l 0.21489,1.89154 0.32239,2.83777 0.27065,1.91304 -1.54529,3.97508 -1.91929,0.21349 -1.9193,0.21349 -1.89306,0.26323 -2.79721,1.21671 c -0.91032,5.95653 -11.28436,20.43368 -10.96456,23.24866 l 0.64479,5.67553 0.21489,1.89154 c 2.6355,3.80913 4.89821,4.04853 5.87328,8.92485 -1.98386,0.7653 -12.52583,8.27045 -14.64316,10.01894 -4.70809,3.88473 -10.08077,6.26857 -9.86303,13.77782 -3.02761,2.52454 -13.61292,22.92568 -15.33244,27.56632 -5.28801,14.27327 -5.30154,16.32037 -17.20982,26.08956 -4.67364,3.83382 -8.26258,5.55216 -11.95212,10.41285 -2.47928,3.26573 -0.61888,3.20925 -4.56199,5.88732 -3.20991,2.18019 -4.02326,2.51621 -5.84261,5.74268 -6.02957,10.69471 -10.07834,15.61383 -14.96681,27.85243 l 0.21489,1.89154 0.1075,0.94623 M 37.143169,492.93522 l 2.879413,-0.32029 c 7.992191,2.74249 11.026786,-0.84901 16.321435,6.80446 l -3.813083,0.25614 -3.971494,-0.34749 c -0.50593,-1.381 -0.533186,-2.81525 -2.241793,-2.62519 -2.915449,0.3243 -3.071856,2.00329 -3.408702,4.21098 6.012241,-0.53491 7.576734,2.32254 10.348657,5.5534 6.323455,-0.56308 8.462745,2.88954 11.945565,2.50213 2.55875,-0.28462 5.45028,-9.02314 6.46428,-11.28308 1.24844,-2.78264 7.10717,-8.42465 10.68702,-8.82285 4.81256,-0.53532 16.9138,7.10135 19.630743,10.26816 -1.40201,0.50027 -2.855803,0.52814 -2.664523,2.21183 0.36931,3.25072 4.522593,10.03328 7.900073,9.65758 l 1.9193,-0.21349 1.91929,-0.21349 c 1.65992,-4.68755 -0.97315,-2.23183 2.92519,-5.45232 2.06942,-1.70901 3.20327,-3.10348 5.00028,-4.68156 3.97611,-3.49131 6.25481,-6.04331 8.15822,-10.81149 l -0.215,-1.89245 -1.28936,-11.34925 -0.48026,-3.75809 -1.41811,-2.80451 0.82382,-2.89603 -0.21489,-1.89155 c -0.45081,-3.96813 -10.82859,-14.48922 -12.06791,-20.68664 -4.28956,-2.42233 -4.59075,-7.34683 -6.57636,-9.13372 -3.05929,-2.75395 -4.8359,0.81578 -9.752153,-6.29085 l -0.21489,-1.89154 -0.2149,-1.89154 c -1.37107,-2.15987 -2.12689,-4.12601 -3.63158,-6.30057 l -1.9193,0.2135 -1.91929,0.21349 c -3.98274,0.44302 -6.36591,-5.99641 -10.34865,-5.5534 l -0.95919,0.1067 -4.83949,0.61952 -1.98601,-0.8185 -2.87848,0.32019 c -4.80008,-1.85877 -3.95546,-2.57027 -7.65242,-4.5702 -4.858423,-2.62767 -3.727027,-1.97627 -9.199908,-3.73619 -2.367842,-0.76127 -13.440133,-10.27091 -13.664244,-12.24358 -0.438074,-3.85602 5.22888,-5.29686 4.790704,-9.15378 l -0.107396,-0.94532 -0.230899,-1.85099 -6.064298,-2.23784 -1.919297,0.21349 -2.879403,0.32029"
       id="rJRSH9bBJfm" />
  </g>
  <script
     id="script117">(function(){var a=document.querySelector('#SkVSq-r1fX'),b=a.querySelectorAll('style'),c=function(d){b.forEach(function(f){var g=f.textContent;g&amp;&amp;(f.textContent=g.replace(/transform-box:[^;\r\n]*/gi,'transform-box: '+d))})};c('initial'),window.requestAnimationFrame(function(){return c('fill-box')})})();</script>
  <path
     d="m 154.46397,410.23024 222.0025,25.55534 36.74259,-143.26745 20.5022,7.92163 -24.25078,126.45648 -25.23146,32.6569 -18.37242,-11.40043 -11.41734,16.70203 -11.74311,-14.54975 c 0,0 -9.01612,22.35446 -12.12544,21.35427 -3.10931,-1.00023 -13.55873,-23.1998 -15.34925,-20.94458 -1.7905,2.25518 -9.1932,25.57228 -13.69351,18.57115 -4.50033,-7.00114 -7.28235,-19.00299 -7.28235,-19.00299 l -6.67589,4.05932 -7.62403,-8.55048 -6.56039,8.45213 -4.5725,-9.74664 -10.88743,8.04022 -2.79646,-12.55094 -14.5551,9.25602 -4.61582,-11.39396 -9.01028,9.07964 -3.38367,-11.43314 -16.37445,10.41303 -2.79647,-12.55095 -10.93074,6.39291 c -10.40968,-6.16349 -14.5629,-12.43592 -18.05701,-13.4509 -17.83011,-5.1794 -24.61277,3.50563 -20.94139,-16.06886"
     id="B1yLHcWrJfm"
     inkscape:connector-curvature="0"
     style="color:#000000;display:inline;overflow:visible;visibility:visible;opacity:0.89200003;fill:none;stroke:#ff0000;stroke-width:3.35073638;stroke-linecap:butt;stroke-linejoin:miter;stroke-miterlimit:4;stroke-dasharray:none;stroke-dashoffset:0;stroke-opacity:0.99470903;marker:none;enable-background:accumulate"
     sodipodi:nodetypes="ccccccccccccccccccccccccccsc" />
</svg>
